<svg xmlns="http://www.w3.org/2000/svg" enable-background="new 0 0 700 700" viewBox="0 0 700 700"><path fill="#ccc" d="M519.2 583.4c2.3.7 4.3.4 5.8-1.1 1.2-1.2 1-2.9 1-4.5-.3-4.8-.3-9.5-.9-14.3-3 1.1-14.1-1.3-15.7-1.8-7.2-1.9-10.2-4.1-16.1-6.6-2 15.6 12.7 24.5 25.9 28.3z"/><path fill="#ccc" d="M519.2 583.4c2.3.7 4.3.4 5.8-1.1 1.2-1.2 1-2.9 1-4.5-.3-4.8-.3-9.5-.9-14.3-3 1.1-14.1-1.3-15.7-1.8-7.2-1.9-10.2-4.1-16.1-6.6-2 15.6 12.7 24.5 25.9 28.3zM212.6 272.2c.1-6.6 1.3-12.9 4.3-18.7 1.3-2.5 3.1-4.6 6-4 2.8.7 4 3.6 4.1 6.3.3 6.6-1.9 12.3-5.1 17.9-3.2 5.6-6.8 10.7-8.9 16.9-2.5-8-2.3-14.8.9-22.6M413.3 149.5c-15.1-2.6-27.2-9-43.8-8.8-.3 0-12.5 13.8-14.5 15.5 4.9-7 18.4-7.8 25.8-8.3 12.4-.9 20.9 0 32.5 1.6z"/><path d="M468.8 506.4c-1-.3-2.1-.3-3.3.2-3.5 1.2-6.3 4.4-7.5 8.6-.8 2.7-.5 6-.2 9 .1.9.2 1.8.2 2.6-12.7 15-22.4 32.7-28.2 51.5l.2-1c.1-.6-.2-1.2-.7-1.6s-1.2-.3-1.7.1c-4.4 3.5-8.3 7.7-11.6 12.3 2-15.8 8.1-30.8 14-45.4.3-.7 0-1.5-.6-1.8-.6-.4-1.4-.3-1.9.3-10.2 11.7-18.5 25.4-24.3 39.9-.2-5.4.7-10.9 2.6-15.9.3-.7-.1-1.6-.8-1.9-.7-.3-1.6-.1-1.9.6-2.8 5-5.3 10.2-7.4 15.5 1.1-23.2-2.9-46.4-12-67.8 1.7-5.9-1.7-12.4-3.3-14.9-2.7-4.4-6.2-7.9-9.7-11.3-2.9-2.8-6.1-5.4-9.9-4.7-1.3.2-2.2.8-2.6 1.8-.3.6-.2 1.3-.2 1.6.5 10.2 11 26.8 22.8 28.5 10.1 23.9 13.9 50 11.2 75.7-7.2-10.6-14.8-21.2-22.7-31.3-.4-.5-1.2-.7-1.8-.4-.6.3-1 1-.9 1.7 2.8 14.5 4.1 29.2 3.8 43.9-2-.3-3.9-.7-5.8-1.4-.8-.3-1.6.1-1.9.9-.3.8.1 1.6.9 1.9 2.2.8 4.4 1.3 6.7 1.6v.1c0 .8.6 1.5 1.5 1.5.8 0 1.4-.6 1.5-1.4 2.6.2 5.1.2 7.5.3l54 .7c.7 0 1.3-.5 1.5-1.1 2.8-11.4 7.5-22.1 13.9-31.9.4-.6.3-1.4-.2-1.9s-1.3-.6-1.9-.2c-6.3 3.9-12.1 8.5-17.2 13.7 5.3-19.9 14.9-38.7 27.9-54.6.3.2.7.2 1.1.2 4.2-1 7.9-3.6 10.2-7.3 2.3-3.7 3-8.2 2-12.4-.4-2.5-1.6-4-3.3-4.5zm-107.7-22.6v-.2c.1 0 .2-.1.3-.1 2.5-.4 5 1.6 7.3 3.9 3.3 3.3 6.8 6.7 9.3 10.7 1.2 2 3.8 6.9 3.2 11.3-9.9-1.6-19.6-16.7-20.1-25.6zm66.8 104.5.5-2.6c.2.2.5.4.8.5H429.8c-.7.7-1.3 1.4-1.9 2.1zm39.8-66.7c-1.5 2.5-3.9 4.4-6.6 5.4 0-1-.1-2-.2-3.1-.3-2.7-.5-5.7.1-7.9 1-3.3 3.1-5.8 5.6-6.6.4-.1.7-.2 1-.2.1 0 .3 0 .4.1.8.3 1.3 1.7 1.4 2.3.7 3.3.1 7-1.7 10zM316 149.9c-.8-.1-1.6.5-1.7 1.3-.1.8.5 1.6 1.3 1.7h.5c1 0 1.9-.3 2.6-.9.8-.7 1.3-1.7 1.4-2.9.1-1.8-.6-3.1-1.3-4.2-.1-.2-.3-.4-.4-.7-.7-1.2-1.1-2.2-1-3.3.1-.8-.6-1.5-1.4-1.6-.8-.1-1.5.6-1.6 1.4-.2 2 .6 3.5 1.4 5 .1.2.3.5.4.7.6 1 1 1.7.9 2.6 0 .3-.1.6-.3.8-.2.1-.5.1-.8.1zM312.7 156c-.8-.3-1.6 0-2 .8-.3.8 0 1.6.8 2 .9.4 1.7.6 2.6.6.6 0 1.2-.1 1.9-.3.8-.2 1.2-1.1 1-1.9-.2-.8-1.1-1.2-1.9-1-.9.2-1.5.1-2.4-.2zM337.3 231.4c.9.6 1.8.8 2.5 1 .7.1 1.1.2 1.4.5.7.6 1 1.4 1.3 2.5.2.7.5 1.4.9 2.1 1.3 2.4 3.2 4 5.1 5.5.5.4.9.8 1.4 1.2 2.4 2 3.3 3.8 3.2 6.2 0 .8.6 1.5 1.4 1.6h.1c.8 0 1.5-.6 1.5-1.4.2-4.3-2.2-6.8-4.3-8.6l-1.5-1.2c-1.8-1.4-3.3-2.7-4.3-4.5-.3-.5-.5-1.1-.7-1.7-.4-1.3-.9-2.7-2.2-3.8-.9-.8-1.9-1-2.8-1.1-.6-.1-1-.2-1.4-.5-1.5-1.1-1.9-2.7-2.1-5.1-.2-2.6-.3-5-1.9-7.5-.5-.7-1.4-.9-2.1-.4-.7.5-.9 1.4-.4 2.1 1.2 1.8 1.3 3.6 1.4 6.1.3 2.2.8 5.1 3.5 7zM181.3 224.5c-.8-.1-1.6.5-1.7 1.3-.4 3.5.2 6.4 1.9 9.5.3.5.8.8 1.3.8.2 0 .5-.1.7-.2.7-.4 1-1.3.6-2-1.4-2.5-1.9-4.9-1.5-7.8.1-.8-.5-1.5-1.3-1.6zM219.4 327.2c.1 0 .3.1.4.1.6 0 1.2-.4 1.4-1.1.2-.8-.2-1.6-1-1.9l-14.6-4.6c-.8-.2-1.6.2-1.9 1-.2.8.2 1.6 1 1.9l14.7 4.6zM247.9 253.6c.4-2.6.9-5.3 1.3-7.9.1-.8-.4-1.6-1.3-1.7-.8-.1-1.6.4-1.7 1.3-.4 2.6-.8 5.3-1.3 7.9-.4 2.3-.8 4.7-1.1 7.1-.1.8-.3 2 .3 3.1.6 1 1.4 1.4 2 1.7.5.2.6.3.7.4.2.4-.1.9-.6 2l-.3.6c-1.8 3.7-2.4 7.6-1.7 12 .1.7.8 1.3 1.5 1.3h.2c.8-.1 1.4-.9 1.2-1.7-.6-3.8-.2-7 1.4-10.1l.3-.6c.7-1.3 1.5-2.8.7-4.6-.6-1.2-1.5-1.6-2.2-1.9-.4-.2-.6-.3-.6-.4-.1-.2 0-.7 0-1.2.4-2.6.8-5 1.2-7.3zM213 355.7c-.2-.8-1-1.3-1.8-1.1-.8.2-1.3 1-1.1 1.8 1.4 6.3 3.9 11.7 7.7 16.9.3.4.7.6 1.2.6.3 0 .6-.1.9-.3.7-.5.8-1.4.3-2.1-3.6-4.9-5.9-9.9-7.2-15.8zM372.1 307.8c3.3 0 6.2-.9 9.4-1.5 2.6-.5 4-2.3 5.2-4.5 0 0 .1-.1.1-.2.3-5.6-1.8-8.9-7.8-9.1-2.6-.1-6.1.7-8.6 1.2-3.3.6-4.6 2.4-5.9 5.2-.1.1-.1.3-.1.4-.3 5.2 2.4 8.5 7.7 8.5zM362.2 328.1c.2 0 .3 0 .5-.1 7.5-2.6 15.1-5 22.8-7.1.8-.2 1.3-1.1 1-1.8-.2-.8-1.1-1.3-1.8-1-7.7 2.2-15.4 4.6-23 7.2-.8.3-1.2 1.1-.9 1.9.2.5.8.9 1.4.9zM160.3 278.5c.6-3 .6-5.9.6-8.3 0-.8-.7-1.5-1.5-1.5s-1.5.7-1.5 1.5c.1 2.2 0 4.9-.5 7.6-.2.9-.4 1.5-.8 1.9-.1.1-.3.3-.8 0s-1.1-.3-1.6 0-.7.9-.6 1.5c.4 2.4.6 4.3.5 6.1v.5c-.2.1-.5.1-1 0-.6 0-1.2-.1-2 .1-.4.1-.7.4-.9.7-.2.4-.2.8-.1 1.2l3.4 9.9c.2.6.8 1 1.4 1 .2 0 .3 0 .5-.1.8-.3 1.2-1.1.9-1.9l-2.8-8c.7 0 1.4-.1 2.2-.6 1.3-.8 1.3-2.2 1.3-2.9 0-1.4 0-2.9-.3-4.6.7-.1 1.4-.4 1.9-1 1-.7 1.4-1.9 1.7-3.1zM327.1 347.9c.2.1.5.2.7.2.5 0 1.1-.3 1.3-.8 2.9-5.4 5.1-9.9 4.6-15.7-.1-1-.3-1.9-.5-2.8-.4-1.8-.7-3.2.1-4.7.2-.3.5-.6.9-.9.6-.5 1.5-1.2 1.8-2.4.6-2.2-.4-3.8-1.2-5.2-.1-.2-.3-.4-.4-.7-.9-1.7-.8-2.3-.4-2.8.1 0 .2-.1.4-.1.4-.1.9-.2 1.5-.6 2.4-1.8 3.2-4.6 2-7.4-.8-2-2.3-3.2-3.7-4.3-.4-.3-.7-.6-1.1-.9-.6-.6-1.6-.5-2.1.1-.6.6-.5 1.6.1 2.1.4.4.8.7 1.2 1 1.2 1 2.2 1.8 2.8 3.2.6 1.5.3 2.8-1 3.8-.1 0-.3.1-.4.1-.5.1-1.3.3-1.9 1.1-2.1 2.5-.5 5.2 0 6.3.1.2.3.5.4.7.7 1.2 1.1 1.9.9 2.8-.1.3-.4.5-.8.9-.5.4-1.2 1-1.6 1.8-1.3 2.4-.8 4.7-.4 6.7.2.8.3 1.6.4 2.4.4 5-1.5 9-4.2 14-.4.8-.1 1.7.6 2.1zM395.8 275c.1 0 .3.1.4.1.7 0 1.3-.4 1.4-1.1.9-3.2 1.4-6.5 1.5-9.8 0-.8-.6-1.5-1.5-1.5-.8 0-1.5.6-1.5 1.5-.1 3.1-.5 6.1-1.4 9.1-.2.6.3 1.5 1.1 1.7zM396.7 278l-.3.3c-.6.6-.6 1.5 0 2.1.3.3.7.5 1.1.5.4 0 .8-.1 1-.4l.3-.3c.6-.6.6-1.5 0-2.1-.6-.6-1.5-.6-2.1-.1zM322.4 217.1c.3.3.7.4 1 .4.4 0 .8-.2 1.1-.5.6-.6.5-1.6-.1-2.1-2.5-2.3-5.1-4.3-7.9-6.1-.7-.4-1.6-.2-2.1.5-.4.7-.2 1.6.5 2.1 2.7 1.6 5.1 3.5 7.5 5.7zM253.5 370.4h.3c.6 0 1.4-.2 2.2-.9.5-.4.6-.9.8-1.2.2.1.4.2.5.2.2.1.3.1.5.2 1 .4 2 .3 2.8-.2.7-.4 1-1.1 1.1-2 0-.8-.6-1.5-1.4-1.6-.6 0-1.2.3-1.4.9-.1 0-.2-.1-.3-.1-.8-.4-2-.9-3.2-.2-.9.5-1.2 1.3-1.4 1.7v.1l-.1.1-.3-.3c-.5-.7-1.4-.9-2.1-.4-.7.5-.9 1.4-.4 2.1.6 1 1.5 1.5 2.4 1.6zM355.5 155.2c5.8-4.8 11.7-9 17.6-13.6 9.4 2.1 18.9 4.2 40.1 8.8.8.2 1.6-.4 1.8-1.2l3.2-17.8c.1-.8-.4-1.6-1.2-1.7-.8-.1-1.6.4-1.7 1.2l-2.9 16.3c-17.5-3.8-29.5-6.5-39.3-8.6-.4-.1-.9 0-1.2.3-4.9 3.8-9.7 7.3-14.7 11.2 2.9-10.5 2.2-6.2 8-34.2 1-4.8 2-9.5 2.8-13.5 16.8 3.5 33.6 7.7 50.3 11.5l-1.4 8.6c-.1.8.4 1.6 1.2 1.7.8.1 1.6-.4 1.7-1.2l1.6-10c.1-.8-.4-1.5-1.1-1.7-17.7-4-35.4-8.5-53.2-12.2-.8-.2-1.6.3-1.8 1.2-4.5 20.6-6.6 33-10.2 45.6-.6 2.2-1.3 4.5-2.1 7.9-.3 1.3 1.4 2.4 2.5 1.4z"/><path d="M370.6 130.5c-.7.5-.9 1.4-.4 2.1.5.7 1.4.9 2.1.4 1.9-1.3 3.6-2.7 5.6-3.3 1.9-.5 3.5-.2 4.9 1.1.9.8 1.7 2.9 4 3.3 2.2.3 3.4-1.4 4.2-1.3.8 0 1.3.6 2.1 1.5.7.7 1.4 1.6 2.5 2.1 4.5 2.2 8.6-2.9 11.3-.1.6.6 1.5.6 2.1.1.6-.6.6-1.5.1-2.1-2.3-2.5-5.2-1.9-7.2-1.3-.4.1-.7.2-1 .3-3.2 1.1-3.8.8-5.5-1-.9-1-2.1-2.3-4.1-2.4-2.1-.1-3.2 1.5-3.9 1.4-.8-.1-1.3-1.5-2.4-2.5-2.2-1.9-4.9-2.5-7.7-1.7-2.9.5-4.7 2.1-6.7 3.4zM381.3 120.4c.7-.8 1.8-1.6 4.2-.8 3 1.1 4.8 2.8 8.9 2 1.8-.3 2.2-.3 4 1.2 1.4 1.1 2.8 2.1 4.6 2.1 1.3 0 2.5-.6 3.4-1.8.5-.7.3-1.6-.3-2.1-.7-.5-1.6-.3-2.1.3-.9 1.3-2.5.1-3.7-.9-.9-.7-2-1.6-3.3-1.9-2-.5-3.4.3-4.7.3-2-.1-3.6-1.3-5.8-2.1-3.8-1.4-6.2.1-7.5 1.6-.5.6-.5 1.6.2 2.1.6.7 1.5.6 2.1 0zM563.6 379c-.8.3-1.2 1.2-.8 1.9 1.4 3.5 1.4 6.7.1 10.2-.3.8.1 1.6.9 1.9.2.1.4.1.5.1.6 0 1.2-.4 1.4-1 1.6-4.2 1.6-8.2-.1-12.4-.3-.6-1.2-1-2-.7zM571.6 383.1c-.8.3-1.2 1.1-.9 1.9.7 2.2.8 4.1 0 6.3-.3.8.2 1.6.9 1.9.2.1.3.1.5.1.6 0 1.2-.4 1.4-1 .9-2.8.9-5.4 0-8.2-.2-.8-1.1-1.3-1.9-1zM140.2 325.5c.3.3.7.5 1.1.5.4 0 .7-.1 1-.4.6-.5.7-1.5.1-2.1-4-4.5-8.9-10.7-11.9-17.9-2.9-7.1-3.4-14.4-1.3-20.5.3-.8-.2-1.6-.9-1.9-.8-.3-1.6.2-1.9.9-2.3 6.8-1.8 14.8 1.4 22.6 3.2 7.7 8.3 14.1 12.4 18.8zM122.8 323.3c.4 0 .7-.1 1-.4.6-.6.6-1.5.1-2.1-3.8-4-6.2-9.4-6.5-14.9-.1-.8-.8-1.4-1.6-1.4-.8.1-1.5.8-1.4 1.6.4 6.3 3 12.2 7.3 16.8.3.2.7.4 1.1.4zM553 475.8c-.7.5-.9 1.4-.4 2.1 10.4 15.6 13.9 35.8 9.4 54-.2.8.3 1.6 1.1 1.8h.4c.7 0 1.3-.5 1.5-1.1 4.8-19 1.1-40.1-9.8-56.4-.6-.7-1.5-.8-2.2-.4zM573.1 491.1c-.8.2-1.3 1-1.1 1.8 1.9 7.3 3 14.7 3.3 22.2 0 .8.7 1.4 1.5 1.4h.1c.8 0 1.5-.7 1.4-1.6-.3-7.7-1.4-15.4-3.4-22.9-.2-.7-1-1.2-1.8-.9z"/><path d="M572.9 372.7c-5.6-1.8-12.5-2-18.7-2-.1-7.4 0-7-.4-7.5-.2-.3-.5-.5-.8-.6-29.8-7.9-60.9-12.1-91.6-12.4-11.2-.1-22.3.3-33.3 1.2-2.2.2-4.5.4-6.7.7-2.9-.2-5.7-.2-8.7.1-13.1 1.3-26.2 2.7-39.4 4-2.3.2-4.6.5-6.9 1-3.1.7-6 1.9-9 2.8 5.2-2.1 10.5-4.2 15.6-6.2 8.6-3.4 17.6-6.9 26.3-10.6.5-.2 1.1-.5 1.6-1.2.6-.8.7-1.7.8-2.4.5-6 .9-12 1.2-18.1.2.1.3.1.5.1s.4 0 .6-.1c3.8-1.6 7-3.6 9.9-6.1.5-.4 1.1-1 1.6-1.8.8-1.3 1-2.7.7-4-.3-1.6-1.3-2.8-2.7-3.4h-.1c.3-.2.6-.5.9-.7.5-.5 1.1-1 1.6-1.8.8-1.4 1-2.7.7-4-.4-1.6-1.3-2.7-2.7-3.3-.1-.1-.3-.1-.4-.1.2-.2.4-.3.6-.5.5-.5 1.1-1 1.6-1.8.8-1.4 1-2.8.7-4-.4-1.7-1.3-2.8-2.7-3.3-.9-.4-1.7-.4-2.5-.4.7-.4 1.3-.8 2-1.3s1.2-1.2 1.7-1.9c.8-1.4 1-2.7.7-4-.5-2.1-1.8-3-2.7-3.3-1.9-.8-3.5-.4-5.1 0-.8.2-1.6.5-2.3.8.5-8.7 1-17.4 1.6-26.1 0-.5-.2-1-.6-1.3-.4-.3-1-.4-1.4-.2-1.8.7-3.5 1.3-5.2 2-2.4.9-4.9 1.8-7.5 2.9-3.9 1.7-8.5 3.6-12.7 5.8-.2.1-.5.3-.7.4-2.4-3.7-4.9-7.4-7.2-11-9.2-14.1-17.9-27.4-28.3-41-2.1-2.8-6.7-6.4-11.1-7.8-20.3-6.4-19.8-6.8-20.9-6.4-.3.1-.5.2-.7.4-9.4 10.2-20.6 14.8-33.3 13.6-7.8-.7-10.7-2.9-16-7.9-1.8-1.7-2.9-4-3.8-6.5 2.6-2.2 4.7-4.7 6.3-8 1.3-2.5 1.6-5 1.9-7.8.2-2.3-1.3-5.1-.5-7.4.7-2.3 3.3-2.5 5-3.5 2.2-1.4 4.2-2.5 5.9-4.3 3.6-4 5.1-8 7.1-13.1 0 .1 0 .3.1.4 1.8 4.5 4.1 8 7.4 11.1.3.3.7.4 1 .4 1.3 0 2-1.7 1-2.6-3-2.8-5.1-6-6.7-10-.3-.8-1.2-1.2-1.9-.9-.2.1-.3.2-.4.3 2.9-7.3 5.8-14.4 10.8-20.7 2.3-2.8 5.5-4.5 8.4-6.5.1-.1.2-.2.4-.2 5.1.7 7.8-1.4 11.2 1.6.7.6 1.5 1.1 2.4 1.4 1.8.6 3.8.8 5 2.3 1 1.3.7 3 1.2 4.5.3.9.9 1.8 1.5 2.6-.1 7.4-1 14.8-2.7 20.6-1.7 6.1-3.9 9.1-8.7 12.5-3.9 2.7-8.1 2.2-12.7-1.6-.6-.5-1.6-.4-2.1.2-.5.6-.4 1.6.2 2.1 1.8 1.5 3.4 2.5 5 3.1 0 .2-.1.4 0 .6l.1.6c.7 6.1 1.5 12.3 3.3 18.4.2.8 1.1 1.3 1.9 1 .8-.2 1.3-1.1 1-1.9-.8-2.8-1.4-5.7-1.9-8.6 2.3-1.5 4.2-3.6 6.7-5 1.2-.7 2.7-.5 4-1.1 3.2-1.3 5.7-3.2 7.4-6.3s2.1-6.2 2.6-9.6c.1-.8 0-1.6.4-2.5.8-1.8 2.2-2.9 3.3-4.6 1.1-1.7 2.1-3.6 2.7-5.6 1.2-4.1 1.3-8.1.6-12.3-.1-.8-.5-1.6-.9-2.2-.4-.6-1-1.1-1.1-1.7-.1-.6.2-.8.3-1.2 1.5-4.5 2.7-8.5 1-13.1s-5.1-6.9-9.7-8.3c.3-4.8-2.5-7.3-6.8-9.8-1.8-1-3.5-2-5.5-2.3-2.7-.3-4.8.4-6.9 1.7-1.7-.1-2.7-1.7-5.2-1.9-3.5-1.7-8-.9-11.7.8-4.8 2.2-9 5.7-10.1 10.9-1.5.6-10.2 1.3-15.8 6.2-3.9 3.4-6.5 6.8-9.3 11.5-6 10.1-6.6 20.7-5.4 32.3.1 1.3.3 2.3-.5 3.3-.4.5-1 .4-1.5.6-4.1 1.9-6.8 5.2-8.5 9.3-1.1 2.8-1.9 5.7-2.4 8.6-15.8-.3-28 3.6-42.7 17.7-.7.1-.6.2-3.7 3.7-3.9 4.1-7.4 8.1-10.7 12-6.7 7.6-7.3 8.5-9.9 11.2-1.1 1.2.2 3.1 1.7 2.4.9-.3-.2.2 21.1-23.6 13.6-14.1 25-20.7 43.7-20.4-.3 2.6-.4 5.2-.4 7.7 0 2.4.7 3.9.2 5.6-.7 2.8-2.7 2.8-4.3 4.6-2 2.2-3.4 4.5-3.5 7.4-.2 4.1 1.4 7.6 2.7 11.4.6 1.8-.2 1.8-.6 2.4-2.2 2.9-2.5 5.9-2.3 9.4v.6c3.4 1.9 6.6 2.6 10.2 2.3.6-.8 1.1-1.7 1.6-3 1.1-2.7 3.6-3.6 5.4-5.9 1.6-2 2-4.8 1.1-7.4 6.4-4.6 7.1-9.3 6.4-17.1-.1-.6-.1-1.2.1-1.6.3-.5.1 0 3.2-2.1 1 2.6 2.3 5 4.2 6.8 5.6 5.3 9.1 7.9 17.8 8.7 1.5.1 2.9.2 4.3.2 11.7 0 22.1-4.8 30.9-14.2 2.9.9 6 1.9 9.1 2.9 3.4 1.1 6.8 2.2 10 3.2 3.6 1.1 7.8 4.4 9.6 6.8 10.2 13.6 18.9 26.8 28.1 40.9 2.3 3.6 4.7 7.2 7.1 10.8-7.5 4-14.9 8.4-22.9 13.3h-.1c-4.1-2.6-7.7-4.8-12.3-7.2-12.7-6.8-23.7-12.4-33.6-17-.4-.2-.8-.2-1.2 0-.4.1-.7.4-.8.8-.6 1.5-.5 3.6-.5 5.1v.8c0 1.5-.1 2.7-.1 4 0 .6-.1 1.3-.1 2-2.7-.5-5.4-1-8-1.4-.4-.1-.8 0-1.2.3-.3.3-.5.6-.6 1.1-.3 3.8-.3 7.1 0 10.1-3.5-.1-6.9-.1-10.4-.2h-.2c-.8 0-1.5.6-1.5 1.4-.5 7.6-1 16.2-1.4 25.1-.7-.7-1.8-1.2-3.1-1.3-3.1-.2-5.9 1.6-19.7 7.5-.6.2-6.3 2-8.9 2.7.1-.6-.3-1.2-.8-1.5-11-5.1-20.9-6.7-32.3-12-3.5-1.7-6.2-7-4.2-12.7 2.3-6.8 4.7-18.7 7.6-25.9.3-.8-.1-1.6-.8-1.9-.8-.3-1.6.1-1.9.8-2.9 7.4-5.4 19.3-7.6 26-.8 2.4-1 4.8-.7 7-1.5.3-2.8 0-4.9-.6-.8-.2-1.6.2-1.9 1-.2.8.2 1.6 1 1.9 2.2.6 4.1 1.1 6.4.6 1.1 3 3.3 5.4 5.7 6.5 11.3 5.3 20.7 6.8 31.1 11.4-3.4 10.2-6.3 20.8-9.1 31.1-9.4-1.6-19.7-3.2-29-5.5-19.4-4.7-34.4-10.1-49.2-22.7-4.1-3.5-9.1-8.2-11.2-13.6-1.8-4.7-2.2-10.6-1-17.4 3.2-18.2 13.4-32.6 24-47.2.5-.7.3-1.6-.3-2.1-.7-.5-1.6-.3-2.1.3-11.1 15.3-21.3 29.8-24.6 48.5-1.3 7.4-.9 13.8 1.1 19 2.4 6.1 7.7 11.1 12 14.8 9.2 7.8 18.4 12.9 28.6 16.8-.3.4-.5.9-.3 1.4.9 3 1.7 6.9 2.7 11 4.3 19.1 10.1 45.2 28.5 46.8 1.5.1 3 .2 4.6.2-.5.1-1.1.3-1.6.4.2.8.5 1.6.8 2.3 0 .3 0 .6.2.9 7.9 14 17.4 27.9 32.5 37.2-24.4 0-49.2 0-73.8-.4-2.9 0-6 .2-6.5 2.4-.4 1.5.8 3.1 3.9 5.4-.1.2-.2.5-.2.7-.8 25.5-.7 49.1-.7 71.9v26.7c-5.5 8.2-10.1 17-13.7 26.1-.2-5.4.7-10.9 2.6-15.9.3-.7-.1-1.6-.8-1.9-.7-.3-1.6-.1-1.9.6-3.8 6.8-7 14-9.6 21.5.2-21.5-5.5-43.2-16.4-61.8.4-3.2.6-6.5.5-9.7-.1-7.3-1.4-12.6-4.3-16.7-3.3-4.7-10.1-8.3-16.2-5.9-1.6.7-2.8 1.6-3.4 2.8-.7 1.4-.6 2.9-.5 4.2 1.4 11.2 11 20.5 20.1 24.8.2.3.4.7.6 1.1v.3c-.1.8.4 1.5 1.2 1.7 10.4 18 15.7 39 15.4 59.8-6.8-9.9-13.9-19.6-21.2-29.1-.4-.5-1.2-.7-1.8-.4s-1 1-.9 1.7c3 15.5 4.2 29.5 3.9 44-2-.3-4-.7-5.8-1.4-.8-.3-1.6.1-1.9.9-.3.8.1 1.6.9 1.9 2.5.9 5.1 1.4 7.7 1.7.2.1.4.1.6.1h.4c2.9.3 5.8.3 8.5.3l54 .7c.7 0 1.3-.5 1.5-1.1 2.8-11.3 7.5-22.1 13.9-31.9.4-.6.3-1.4-.2-1.9s-1.3-.6-1.9-.2c-7.7 4.7-14.5 10.4-20.4 17.1l2.2-11c.1-.6-.2-1.2-.7-1.6-.5-.3-1.2-.3-1.7.1-2.8 2.3-5.5 4.8-7.9 7.6.1-4.4.1-8.8.2-13.2 2.8-9.4 6.5-18.6 10.1-27.6.3-.7 0-1.5-.6-1.8-.6-.4-1.4-.3-1.9.3-2.6 3-5.1 6.2-7.5 9.5v-22.4c0-22.5-.1-45.8.7-70.8 5.3 3.3 14.2 7.8 27.9 14.4 9.6 4.7 18.7 9.1 24.3 12.4l-3 133.4h-29.6c-.8 0-1.5.7-1.5 1.5s.7 1.5 1.5 1.5h110.7c.8 0 1.5-.7 1.5-1.5s-.7-1.5-1.5-1.5h-78.1l3-133.1c39.4 1.4 80.2.9 119.6.4 112.6-1.4 112.6.6 126.8.6h.2c2.3 2.8 3.7 6.1 4.2 10 2.1 15 2 29.9 1.9 44.3-.1 12.7-.2 25.9 1.2 39.1.1.7.6 1.3 1.4 1.3.5 0 1.1.1 1.6.1-.8 5.9-1.3 11.9-1.7 17.7-.4 4.5-.7 9.2-1.3 13.8-.1.8.4 1.5 1.2 1.6 17.8 4 36.5 6 56.7 5.9 3.3 0 8.2-1.5 10.8-3.3 6.4-4.5 4.1-13.5-2.2-18-8.3-5.9-17.2-7.2-27.4-3.9 0-3.5 0-6.5-.1-10.5 1.5.1 13.6 1.2 14.6 1.2.8 0 1.5-.7 1.5-1.5.6-39.6-1.3-76.7-5.9-116.8-1.1-9.1-4-15.5-10.3-22.1-9.7-10.2-20.5-17.2-32.1-24-12.1-2.8-24.3-4.3-37.2-2.9-24.2 2.8-43.5 14.2-59.1 25-4.8 3.3-11.4 6.4-18.4 9.1 5.6.1 11.2.3 16.8.5 5.9 1.8 12.4 3.8 19.2 5.9 5.4 2.2 12.3 5 17.3 6.8-74.8-2.2-159.3 1.3-232.6-1-.5 0-1 .3-1.3.7-10.8-5.3-22.3-11.3-24.1-13.8.5-.1 1.4-.3 3.3-.3 26.4.4 53.1.4 79.3.4 15.9 7.8 33.4 10.2 51.1 10.2 14.7 0 31.6-1.5 48.6-4.5.1-.1.3-.2.4-.2 12.3-2.8 29.8-8.8 39.3-15.3 15.8-11 35.4-22.6 60-25.4 13.9-1.6 27 .2 39.9 3.4 4.8-.1 9.8-.1 14.8-.1 18.4.9 32.1 2.3 40.9 4 .8.2 1.6-.4 1.8-1.2v-.1c.2-.3.3-.6.3-1-.1-1.1-.1-2.2-.2-3.4 8.5.7 17.9 1.8 25.4-1.4 5.3-2.3 7.5-5.7 7.4-11.7-.3-7.8-8.5-12.1-15.4-14.3zM273 130.7c.9-2.4 2.6-3.6 5.1-3.9 1.8-.2 2.6 1.4 3 2 .3.5.1 1.1-.4 1.4-.5.3-1.1.1-1.4-.4-.5-.9-.8-1-1-.9-1.8.2-2.8.9-3.4 2.6-.6 1.6-.4 3.3.7 5.2.1.2.4.3.7.6.4.3.5 1 .2 1.4-.3.4-1 .5-1.4.2-.3-.3-.8-.5-1.2-1.2-1.5-2.5-1.7-4.8-.9-7zM133.1 503.4c-8-3.9-17-12.4-18.2-22.3-.1-.9-.2-1.8.2-2.5s1.2-1.1 1.8-1.4c1-.4 2.1-.6 3.1-.6 3.8 0 7.5 2.4 9.6 5.4 2.5 3.6 3.7 8.3 3.8 15 0 2.1-.1 4.3-.3 6.4zm42.2 67c-.2.3-.4.5-.6.8.2-1.4.4-2.9.6-4.3v3.5zm360 8.4c1.5 3.2 1.8 6.3 1 9.9-.2.8.3 1.6 1.1 1.8.8.2 1.6-.3 1.8-1.1.8-3.8.6-7.3-.8-10.7 1.5 0 2.9.2 4.4.5-.1.3 0 .7.2 1 1.1 2 1.8 4 2.3 6.2.2.8.9 1.3 1.8 1.2.8-.2 1.3-.9 1.2-1.8-.4-2-1-3.9-1.9-5.7 2.3.8 4.6 2 6.8 3.6 2.4 1.7 3.9 3.8 4.5 6.5.4 1.6.6 4.6-2.3 6.6-2.1 1.5-6.4 2.8-9.1 2.8h-.5c-19.1 0-36.8-1.8-54.2-5.6.4-4.2.8-8.5 1.1-12.6.5-5.8 1-11.8 1.7-17.7 10.1.9 19.2 1.9 30.1 2.9.1 4.4 0 8.7.1 12.9 0 .5.3.9.7 1.2.4.3.9.3 1.4.2 2.9-1.1 5.8-1.8 8.6-2.1zm-33.9-55.2c.4.9.9 1.8 1.2 2.8.8 2.6.5 4.9-.9 6.6 3.3 2.7 3.9 6.6 1.7 10.8-.2.3-.5.5-.9.5-.7 0-1.2-.8-.9-1.5 1.9-3.6 1.2-6.8-2-8.9-.6-.4-.6-1.2-.1-1.6 1.5-1.2 1.8-3 1.1-5.3-.7-2.2-2.2-3.9-2.6-6.5-.4-3.4 1.2-6.4 1.7-9.4.4-2.3.3-5.2-2.6-6.3-.5-.2-.8-.8-.6-1.3s.8-.8 1.3-.6c3.2 1.2 4.6 4.3 3.8 8.5-.2 1.1-.5 2.2-.9 3.3-1.2 4.9-.8 6 .7 8.9zm33.6 3.5c.1-.5.7-.8 1.2-.7 1.6.4 1.9 2.2 1 3.6-.2.3-.4.5-.6.8-.8 1-.8 1.1-.5 1.8.7 2 .4 4.2-1.3 6-.4.4-1 .4-1.4 0-.4-.4-.4-1 0-1.4 1-1 1.3-2.1 1.1-3.4-.1-.5-.5-1.1-.4-2.2.2-1.1 1.1-1.9 1.5-2.6.2-.3.2-.6.1-.6-.5-.3-.8-.8-.7-1.3zm-3.8-56c.5-.3 1.1-.2 1.4.2 1.1 1.6 1.8 3.5 1.9 5.5 0 .6-.4 1-.9 1.1-.6 0-1-.4-1.1-.9-.1-1.6-.6-3.2-1.6-4.5-.2-.5-.1-1.1.3-1.4zm-11.4-31.7c.4-.4 1-.3 1.4.1 4.9 5.6 6.7 13.1 8.3 19.7.1.5-.2 1.1-.7 1.2-.5.1-1.1-.2-1.2-.7-1.5-6.4-3.3-13.6-7.9-18.8-.3-.5-.3-1.2.1-1.5zm-35.4-7.5c.3-.4 1-.5 1.4-.2 13 10 21.4 20.1 26.5 31.8 5.2 12.1 6 24.2 6.9 36.9 1.4 20.1.7 28.8 0 50 0 .6-.5 1-1 1-.6 0-1-.5-1-1 .6-15.6 1.3-31.3.3-46.3-.1-1.2-.2-2.4-.2-3.5-.9-12.6-1.7-24.4-6.7-36.3-4.9-11.4-13.1-21.3-25.8-31-.7-.3-.7-.9-.4-1.4zm-36.8-.9c.5-.3 1.1-.2 1.4.3 1 1.6 1.7 3.2 3.1 4.3 1.3 1 2.6 1.2 4.2.6.1 0 .6-.5 1.4-.5.9 0 1.8.6 2.2 1.2 2 2.5 2.8 4.4 2.9 4.5.5.2 1.2-.5 2.3-.7 1.9-.3 3.7.4 5.4 2.3 1.2 1.3 2.1 2.6 3.5 3.4.9.5.5 1.9-.5 1.9-1.3 0-3.9-3.3-4.5-3.9-1.2-1.3-2.3-1.8-3.5-1.6-.9.2-2 1.2-3.5.5-1.3-.5-.8-1.6-3.6-5.1-.2-.3-.6-.5-.7-.5-.1 0-.3.3-.7.4-2.2.8-4.3.5-6.1-.9-1.8-1.4-2.5-3.2-3.5-4.8-.4-.4-.3-1.1.2-1.4zm-2.9 20.6c1.1.3 2.3.6 3.4.9 8.2 3.1 16.5 6.4 24.5 9.9 2 .9 3.7 1.9 5.2 3.1-40.8-1.5-83-1-123.9-.5-40 .5-81.4 1-121.3-.4-5.7-3.4-14.7-7.7-24.2-12.4-1.2-.6-2.4-1.2-3.7-1.8 76.6 2.1 164.2-1.6 240 1.2zm-86.2-69.5c4.3 4.1 8.4 4.4 13.3.9 1-.8 1.5 1 4 .1.5-.2 1.1.1 1.3.6.2.5-.1 1.1-.6 1.3-1.4.5-2.7.5-4-.1-5.4 3.7-10.4 3.3-15.3-1.4-.4-.4-.4-1 0-1.4.3-.4.9-.4 1.3 0zm54.4-69.9c-.2.3-.5.7-.9 1-2.6 2.3-5.4 4-8.9 5.5.1-2.3.3-4.7.4-7 .1 0 .3.1.4.1.2 0 .4 0 .6-.1 1.6-.7 3.1-1.4 4.5-2.3.2.1.4.1.7 0 .4-.1.7-.2 1-.3.8-.2 1.2-.3 1.7-.1.5.2.8.7.9 1.3.1.6 0 1.2-.4 1.9zm-7.7-32.3c.9-.6 1.9-1.1 3.2-1.4 1.5-.3 2.3-.5 3.3-.1.3.1.7.4.9 1.3.1.5 0 1.1-.4 1.8-.2.4-.5.7-.8.9-1 .8-2.1 1.4-3.3 2.1-1.1.6-2.2 1.3-3.3 2 .2-2.2.3-4.4.4-6.6zm-.7 13.8c0-.9.1-1.7.1-2.6.1 0 .2-.1.2-.1 1-.8 2.7-1.1 4.1-1.4l.6-.1c1.4-.3 2.1-.4 3 0 .4.2.7.4.9 1.3.1.5 0 1.1-.4 1.8-.2.3-.4.6-.9 1-2.4 2.1-5 3.7-8 5.1.2-1.7.3-3.4.4-5zm-.2 8.2c1.8-.8 3.6-1.7 5.2-2.7h.1l.6-.1c1.2-.2 2-.3 2.7 0 .3.1.8.4 1 1.3.1.6 0 1.1-.4 1.9-.2.3-.4.6-.9 1-2.6 2.3-5.4 4-8.8 5.5.1-2.3.2-4.5.4-6.8-.1-.1 0-.1.1-.1zm-49.4-24.2c0-.2 0-.5-.1-.7 9.1-5.5 17.5-10.5 26.1-15 4.2-2.1 8.7-4.1 12.5-5.7 2.5-1.1 5-2 7.4-2.9 1-.4 2-.7 3-1.1-1 13.7-1.7 27.6-2.4 41.1-.8 15.1-1.5 30.6-2.7 45.9 0 .6-.2.8-.2.8-.1.1-.1.1-.5.3-8.7 3.6-17.6 7.1-26.2 10.5-6.7 2.6-13.5 5.3-20.3 8.1.2-7.1.4-14.2.6-21.1.7-19.7 1.3-40.1 2.8-60.2zm-47.3-16.5c.1-1.3.2-2.6.1-4.2v-.9c0-.6-.1-1.5 0-2.2 9.4 4.4 19.8 9.7 31.7 16.1 1.1.6 2.1 1.2 3.1 1.7-2.6-.9-5.3-1.7-7.9-2.4-9.1-2.3-18.2-4.1-27.1-5.8 0-.8.1-1.6.1-2.3zm-10 3.5c11.9 2.1 24.1 4.4 36.3 7.4 2.5.6 5.1 1.5 7.6 2.3-14.6-.8-29.3-1.2-43.8-1.4-.2-2.5-.3-5.2-.1-8.3zm-16.5 40c-.1 3.8-.1 5.7-.1 5.8-2.5 0-5.1-.1-7.6-.1 2.7-1.9 6.8-4.8 7.7-5.7zm105.6 102.4c-15.8 1.1-29.2 7.6-44.9 10.9-37.8 8-74.7-4.1-101.3-33.2-7.6 2-15.5 3-23.8 2.3-16.2-1.4-21.8-26.3-25.9-44.4-.9-4-1.7-7.8-2.6-10.8 6 2.1 12.4 3.9 19.3 5.6 9.7 2.4 20.5 4 30.5 5.7.8.1 1.5-.3 1.7-1.1 2.7-9.8 5.5-20.3 9-30.8.3.1.6.1.9 0 1-.3 9.4-2.8 10.1-3.1 5.8-2.5 9.8-4.4 15-6.5 1.3-.5 2.2-.9 3.3-.8 1.3.1 1.3.6 1.3.8.1.9-1 1.3-11.5 9-1.2.9-.6 2.7.9 2.7 10.1-.1 20.4.2 30.5.2 1.7 0 3-.1 3.7.8.3.3.3.6.3.7-.1.4-.4.9-1 1.4-1.1.8-2.5 1.2-4.3 1.4-8.1 1.2-16.7 2-26.4 2.2-.8 0-1.5.7-1.5 1.5s.7 1.5 1.5 1.5c11.1-.3 20.7-1.2 27.3-2.3.2.2.5.3.9.3 1.2 0 2.5 1.1 2.6 2.2.1.9-.2 1.5-1.5 2.4-1 .7-2.3 1-3.7 1.2-8.1 1.4-16.8 2.2-26.7 2.6-.8 0-1.5.7-1.4 1.6 0 .8.7 1.4 1.5 1.4h.1c10-.4 18.9-1.3 27.1-2.7.5-.1 1-.2 1.6-.3.4.3.6.6.7 1.2.1.6-.1 1.4-.5 1.8-.8.9-1.6 1-2.8 1.3-3 .4-11.3 2.6-28.4 2.5-.8 0-1.5.7-1.5 1.5s.7 1.5 1.5 1.5c9.7.1 19.1-.6 28.7-2.5.1.2.2.4.4.6.2.2.7.8.2 1.6-.6.8-1.3 1.4-2.3 1.7-11.2 3.4-22.3 3.8-36.8 1.4-3.4-.5-6.7-1.5-10-2.4-1.7-.5-3.4-1-5.1-1.4-.1 0-.2-.1-.3-.1-.1 0-.2-.1-.3-.1-.8-.3-1.6.1-1.9.9-.3.8.1 1.6.9 1.9l.2.1c.8.3 0 0 5.7 1.6 3.4.9 6.8 1.9 10.3 2.5 13.5 2.2 25.3 2.3 38.2-1.5 3.5-1.1 6-4.6 3.8-7.6 3-1.6 3.7-5.2 2.2-7.5 2.1-1.3 3.4-3.1 3.1-5.5-.2-1.4-1-2.6-2.1-3.5 3.2-1.9 3.6-4.8 2-6.9-1.6-2-3.8-2-5.7-2-1.2 0-.6 0-15.6-.2.1-2.2-.1-9.9 1.5-34.7 21.8.4 44.2.8 66.3 2.3-1.5 19.9-2.1 40.2-2.6 59.8-.2 7.2-.4 14.5-.7 21.8-21.4 1.9-44.3 3.6-67.5 2.6.1-1.9.1-3.7.2-5.5.1-2.6.1-5.3.3-7.9 0-.8-.6-1.5-1.4-1.6-.8 0-1.5.6-1.6 1.4-.2 2.7-.2 5.4-.3 8-.1 2.3-.1 4.6-.2 6.9 0 .4.1.8.4 1.1.3.3.6.5 1 .5 2.6.1 5.2.2 7.9.3-.3.1-.5.1-.8.2-2.4.8-4.4 2.5-6.6 3.6-1.5.8-2.9 1.5-4.3 2.3-3.1 1.2-6.1 2.5-9.1 3.7-8 3.3-15.8 6.6-23.8 8.9 26.1 28 62 39.6 98.7 31.8 15.5-3.3 29.1-9.8 45.2-10.9.5 0 1 .4 1.1.9s-.3 1.2-.9 1.2zm-78.6-21.8c-2.5 1.6-4.8 1.1-7.4-.3-.3 1.5-1.5 2.3-2.7 2.3-1.2 0-2.3-.8-2.9-1.3-.4-.3-.5-1-.2-1.4.3-.4 1-.5 1.4-.2 1 .8 1.6 1 2.1.8.5-.3.4-.9.5-2 .1-.7.8-1.1 1.5-.8 1.2.7 2.3 1.4 3.5 1.7 1.1.3 2.1.1 3.2-.6.5-.3 1.1-.1 1.4.3.2.5.1 1.2-.4 1.5zm136.3-21.4c-4 1.6-6.6-2.8-8.8-1.1-.7.5-.5 2.3-2 3.2-1.7 1.1-3.5 0-5.1-1.3-.7-.6-1.2-.9-1.6-.8-.9.2-1.5.9-2.1 1.6-.8.9-1.7 1.9-3.2 2.2-.2 0-.4.1-.6.1-1.2 0-2-.9-2.6-1.2-.5-.3-.6-.9-.4-1.4.3-.5.9-.6 1.4-.4.7.4 1.3 1 1.7.9 1.9-.5 2.6-3.2 5.3-3.8 1.8-.5 3 1 4 1.6 1.1.7 1.6 1 2.2.7.7-.4.5-2 1.8-3 2.1-1.6 4.4-.4 5.5.2 1.4.7 2.5 1.2 3.7.7.5-.2 1.1 0 1.3.5.2.6 0 1.1-.5 1.3zm28.4 5.8-5.1 2.5c-.1.1-.3.1-.4.1-.4 0-.7-.2-.9-.6-.2-.5 0-1.1.5-1.3l5.1-2.5c.5-.2 1.1 0 1.3.5.2.5 0 1.1-.5 1.3zm106.8 26.7c-6.6 2.9-14.6 2-24.4 1.2-.4-8.2-.7-16.1-.9-23.8 6 0 12.6.3 17.7 1.9 4.9 1.5 13 5.1 13.1 11.8.1 4-.8 6.8-5.5 8.9z"/><path d="M222.9 246.4c.9 1.8 2.3 1.1 3.7.4-.3 1.4.3 3.2 1.8 3.3 1.5.2 2.2-1.1 3.4-1.6.3 1.1.6 2.3 1.2 3.3.6.9 1.5.8 2 0s-.2-2 .8-2.4 1.4 1.6 1.9 2.3c.4.6 1.2 1.2 1.9.6s.7-1.6.6-2.5c.2.1.3.4.5.5 1.3.7 1.9-.3 1.6-1.7-.6-3.3-2.9-6-6-14.4-2.8.1-5.5-.3-8.5-1.7.1.2.3.3.5.5-.1.5-.2 1-.4 1.4-1.3 2.9-3.3 5.7-4.8 8.6-.4 1-.7 2.4-.2 3.4z"/></svg>