<svg xmlns="http://www.w3.org/2000/svg" id="Layer_1" x="0" y="0" enable-background="new 0 0 64 64" version="1.1" viewBox="0 0 64 64" xml:space="preserve"><path id="_x32_8" fill="000" d="M59.7,36.3l-3.2,2.5L33.4,57.3l-2.3,1.8c-0.2,0.2-0.4,0.2-0.7,0.1c0,0,0,0,0,0c-1.9-0.9-3.9-1.7-5.8-2.6    c-2.7-1.2-17.4-6.8-18.4-7.3c-0.6-0.3-0.9-0.9-1-1.6C4.8,46.2,5,44.5,5.3,43c0,0,0,0,0,0c0-0.1,0-0.1,0.1-0.2    c-0.2-0.1-0.5-0.3-0.7-0.4c0.3,0.2,0.7,0.3,1,0.5c0.6,0.4,1.2,0.6,1.9,1c1,0.5,17.2,7,18.6,7.6c1.2,0.6,2.6,1,3.8,1.5    c0.9,0.4,1.8,0.2,2.5-0.4c0.8-0.7,1.6-1.4,2.4-2.1l26.3-21c0.5-0.4,0.6-1.2,0.2-1.7c-0.4-0.5-1.2-0.6-1.7-0.2L56.5,30L33.4,48.5    l-2.3,1.8c-0.2,0.2-0.4,0.2-0.7,0.1c0,0,0,0,0,0c-1.9-0.9-3.9-1.7-5.8-2.6c-2.7-1.2-17.4-6.8-18.4-7.3c-0.6-0.3-0.9-0.9-1-1.6    c-0.4-1.5-0.2-3.2,0.1-4.7c0,0,0,0,0,0c0,0,0,0,0,0c0.1,0,0.1,0,0.2,0.1c0.6,0.4,1.2,0.6,1.9,1c1,0.5,17.2,7,18.6,7.6    c1.2,0.6,2.6,1,3.8,1.5c0.9,0.4,1.8,0.2,2.5-0.4c0.8-0.7,1.6-1.4,2.4-2.1l26.3-21c0.5-0.4,0.6-1.2,0.2-1.7    c-0.4-0.5-1.2-0.6-1.7-0.2l-3.2,2.5L33.1,39.8l-2.3,1.8c-0.2,0.2-0.4,0.2-0.7,0.1c0,0,0,0,0,0c-1.9-0.9-3.9-1.7-5.8-2.6    C21.7,37.9,7,32.3,6,31.8c-0.6-0.3-0.9-0.9-1-1.6C4.6,28.7,4.8,27,5,25.5c0,0,0,0,0,0c0.1-0.7,0.8-1.1,1.5-0.8    c0,0,19.9,7.8,20.1,7.9c0.4,0.1,2.3,0.8,2.5,0.9c0.1,0,0.1,0.1,0.2,0.1c0.2,0.1,0.5,0.1,0.7,0.1c0.3,0,0.5-0.2,0.8-0.4    c0.2-0.1,0.3-0.3,0.5-0.4c2.4-1.8,4.8-3.6,7.1-5.4c0.7-0.5,1.5-1.1,2.2-1.6c0.1,0,0.1-0.1,0.2-0.1c2.1-1.6,4.1-3.1,6.2-4.7    c0.1-0.1,0.2-0.2,0.3-0.3c3.2-2.4,6.3-4.8,9.5-7.1c1.1-0.8,1.1-2.1-0.3-2.6c-1.1-0.4-2.2-0.9-3.3-1.3c0,0,0,0,0,0    c-1.6-0.6-3.3-1.3-4.9-1.9c-2.7-1-5.3-2.1-8-3.1c-2-0.7-4-1.4-6-2.1c-1.8-0.6-3.5-0.5-5.1,0.7c-0.1,0-0.1,0.1-0.2,0.1    c-2.5,1.7-5,3.4-7.6,5.1c-2.8,1.9-5.7,3.8-8.5,5.8c-0.5,0.3-1,0.7-1.4,1c-2.4,1.7-4.7,3.4-7,5.1c0,0-0.1,0.1-0.1,0.1    C3.7,21,3.3,21.7,3,22.6c0,0.1-0.1,0.3-0.1,0.4c-0.2,0.6-0.3,1.3-0.4,1.9c-0.2,1.2-0.2,2.4,0,3.7c0.1,0.6,0.2,1.2,0.3,1.7    c0.1,0.5,0.2,1.1,0.3,1.6c-0.1,0.6-0.3,1.1-0.3,1.7c-0.2,1.2-0.2,2.4,0,3.7c0.1,0.6,0.2,1.2,0.3,1.7c0.1,0.4,0.2,0.8,0.2,1.3    c0,0.1-0.1,0.2-0.1,0.3c-0.2,0.6-0.3,1.3-0.4,1.9c-0.2,1.2-0.2,2.4,0,3.7c0.1,0.6,0.2,1.2,0.3,1.7c0.1,0.6,0.2,1.3,0.4,1.9    c0.2,0.5,0.5,0.9,0.9,1.2c0.5,0.4,1,0.4,1.4,0.7c0.6,0.4,1.2,0.6,1.9,1c1,0.5,17.2,7,18.6,7.6c1.2,0.6,2.6,1,3.8,1.5    c0.9,0.4,1.8,0.2,2.5-0.4c0.8-0.7,1.6-1.4,2.4-2.1l26.3-21c0.5-0.4,0.6-1.2,0.2-1.7C61,35.9,60.2,35.8,59.7,36.3z"/></svg>