<svg xmlns="http://www.w3.org/2000/svg" enable-background="new 0 0 2000 2000" viewBox="0 0 2000 2000"><path fill="#ffef00" d="M1854.8,1063c-28.7-71.5-57.4-143-86.2-214.5c-8.2-20.3-16.1-40.8-24.6-61c-1.1-2.7-4.3-4.6-7.2-4.4
				c-2.2-0.7-4.6-0.1-6.4,2.3c-43.7,59.6-87.4,119.2-131,178.9c-12.1,16.5-24.3,33-36,49.8c-2,2.5-6.6,11.4,0.5,12.2
				c73.9,8.7,147.6,19.7,220.8,33.1c20.9,3.8,41.8,7.8,62.7,12.1C1852.2,1072.5,1856.7,1067.6,1854.8,1063z"/><path fill="#ffef00" d="M1202.8,1112.6c-0.2,0.7-0.3,1.3-0.5,2c-2.8-1.1-6.2-0.6-7.5,2.5c-4.8,11.2-6.7,24.1-9.6,35.9
				c-1.6,6.6-3.3,13.1-4.9,19.7c-9.1,21.2-19.8,41.7-34,59.8c-19.4,24.7-44.6,43.2-74.8,52.4c-17.4,5.3-36.3,8.4-55.1,8.6
				c-1.1-1.7-2.7-3-4.7-3.3c-43.9-7.3-83.1-36-101.9-76.5c-1.3-2.8-3.5-4.1-5.9-4.1c-2.8-8.4-5.3-16.9-7.2-25.6
				c-2.7-11.8-4.8-23.7-6.1-35.7c-1.3-12.3-1-24.8-2.2-37.1c-0.4-4.1-3.3-6-6.2-6c0.2-8.2,1.5-16.4,1.4-24.6
				c-0.1-6.9-10.1-8.3-12-1.6c-2.3,7.9-2.3,17-2.5,25.2c-0.2,8.8,0.2,17.6,1.1,26.4c0.5,5,1.2,10,2.1,15c0.9,30.2,6.1,60.5,19.1,88
				c2.7,5.8,5.8,11.4,9.3,16.7c1.2,2,2.4,4,3.7,5.9c3,8.5,6.7,16.7,11.6,24.3c11.1,17.1,27.1,29.7,45.8,37.5
				c4.6,1.9,8.8-1.6,10.1-5.8c15.1,6.3,31.1,10.2,47.5,11.4c62.4,4.8,122.7-28.1,156.7-79.7c18.7-28.4,29.4-61.5,32.1-95.3
				c3.3-11.3,5.9-22.8,6.7-34.2C1215.4,1107.2,1204.6,1106,1202.8,1112.6z"/><path d="M1860.7,1266.3c-77.1,56.5-143.9,128.2-198.1,206.7c-14.9,21.6-29.4,43.8-41.9,67c-36.1-10.6-67.4-35.9-84.5-69.9
				c-8.9-17.7-13.4-36.5-14.4-55.9c14.3-25,29.6-49.2,45.9-72.4c18.4-26.2,38.6-51.8,59.8-76c10.7-12.2,21.8-24.2,33-35.7
				c5.9-6.1,11.4-11.6,16.9-16.9l0.6-0.6c5.1-5,11-10.6,18-12.4c4-1,8.2-0.4,11.1,1.5c2.1,1.4,3.4,3.4,3.8,5.9
				c1.1,6.7-2.1,14.4-5,21.1c-0.5,1.3-1,2.5-1.5,3.6c-7.8,19.6-18.3,37.5-26.5,50.9c-2.1,3.4-0.7,6.6,1.6,8.1
				c2.6,1.8,6.8,1.8,9.3-1.6c10.1-13.7,18.9-29.6,26.8-48.6c0.4-0.9,0.7-1.8,1.1-2.7c5.7-13.5,13.6-32,2.3-44.6
				c-10.7-11.9-28.8-8.6-41.2,0.9c-11.4,8.7-21.6,19.7-31.5,30.3c-2.1,2.2-4.1,4.4-6.1,6.6c-19.5,20.7-38.1,42.4-55.7,64.9
				c-4.5-35.7-31.1-65.2-56.7-89.2c-15.2-14.3-31.3-28.1-43.8-44.9c-10.9-14.7-18.6-31.2-23.5-48.8c-20.3-72.2,0.6-150.1-24.5-221.5
				c-12.2-34.8-35.5-61.4-64.8-83.2c-28.2-21-59.7-37.1-87.5-58.7c-13.5-10.5-26.3-22.5-36.2-36.5c-11.4-16.1-19.2-34.4-25.8-52.9
				c-13.2-37.5-22.6-77.4-46.9-109.8c-23-30.6-55.4-53.7-92.1-64.6c-39.5-11.7-83-8.7-120.8,7.4c-8.2,3.5-16.1,7.6-23.7,12.3
				c-0.5-0.2-1-0.4-1.5-0.5c-31.3-5.9-62,7.2-84.5,28.7c-24.6,23.5-37.5,56.4-45.9,88.8c-8.8,34-13.1,69.1-24.5,102.4
				c-9.8,28.7-26.1,53.1-47.2,74.6c-38.6,39.5-87,68.7-120.8,112.9c-17.8,23.3-27.8,49.4-34.8,77.7c-6.8,27.3-11.7,58-30.2,80.3
				c-21.8,26.4-56.8,32.1-87.6,42.3c-30.5,10.1-62.8,28-70.8,61.8c-1,4.3-1.5,8.5-1.4,12.8c-6.5-7.1-13.1-14.1-19.6-21.1
				c-1.9-2-3.8-4.1-5.8-6.4c-11.1-12.3-23.7-26.3-40.5-28.7c-9.7-1.4-19.2,1.2-25.4,6.9c-7,6.4-9.4,16.7-6.8,28.2
				c2.7,11.6,9.3,22.8,14,30.2c6.5,10.3,14,19.2,22.1,26.6c3,2.7,6.7,1.9,8.8-0.3c2-2.1,2.8-5.6,0-8.5
				c-15.6-16.2-25.7-31.5-30.9-46.8c-3.4-10.1-2.3-17.2,3.2-20.8c6.2-4.1,14.4-2.8,19.5-0.4c7.8,3.6,13.9,10,19.8,16.2l0.5,0.5
				c6.7,7,13.8,14.5,21.6,22.9c13.8,14.8,27.6,29.9,41.1,45.1c48.3,54.1,94.9,110.7,138.8,168.6c-3.1,28-6.1,56.1-8.9,84.1
				c-3.6,35.8-6.1,72.7-19.2,106.6c-5.9,15.4-15,31.5-27,44c-12.6-28.4-28.1-55.7-44-82.4c-16.3-27.5-33.7-54.3-52.1-80.4
				c-36.7-52-77.5-101.1-121.9-146.7c-25-25.6-51-50.8-78.8-73.4c-6.2-5-15,3.4-8.9,8.9c23.5,21.3,47,42.4,69.3,64.9
				c22.3,22.5,43.7,45.9,64.1,70.1c25.3,29.9,49.1,61.1,71.4,93.4c-1.3,0.7-2.4,1.9-3,3.7c-12.3,35.5-22.9,74.5-14.4,112.1
				c2.7,11.8,7.7,23.2,14.6,33.1c15.4,33.1,106,119.1,183.9,121.3c27,0.8,52.5-5.5,75.9-16.6c2.2-1.1,4.6-1.7,7.1-1.8
				c0.3,0,0.7-0.1,1-0.1c17.4-3.2,31.8,5.2,46.1,14c13.8,8.5,27.8,15.9,43.8,19.2c15.5,3.2,31.3,3.2,46.8,0.2
				c7-1.3,13.8-3.5,20.4-6.1c4-1.6,9-3.4,13.2-5.9c0.6,14.4,1.1,28.8,1.8,43.2c0.4,8.2,12.5,8.3,12.8,0c1.4-43-1.8-86.3-6.2-129.1
				c-4.3-41.7-10.5-83.1-18.6-124.1c-4.9-24.6-10.1-49.3-16.9-73.5c-0.3-1-0.7-1.8-1.2-2.4c4.4-3.5,9.4-6.4,15.2-8.8
				c7.3-2.9,4.6-14.2-3.3-12c-17.6,4.9-33.9,19.6-39.9,37c-2.3,6.7,8,11,11.4,4.8c2-3.8,4.2-7.2,6.6-10.4
				c3.4,14.9,6.7,29.8,9.8,44.8c-0.2,0.3-0.3,0.6-0.5,0.9c-29.6,64-60.9,132.4-118.8,176.1c-26.3,19.8-57.5,34.5-90.7,37.1
				c-36,2.9-71.5-8.2-102-26.9c-22.6-13.8-42.2-31.6-59.8-51.3c4.3,1.4,8.7,2.5,13.3,3.1c35.5,4.4,65.4-23,81.9-51.6
				c19.2-33.2,24.6-71.7,28.5-109.3c3.2-31.1,6.3-62.2,9.2-93.4c1.5,2,3.1,4.1,4.6,6.1c12.6,16.9,24.6,33.9,38.8,54l8.4,11.9
				c10.9,15.5,22.1,31.5,33.4,47c1.4,1.9,3.3,2.7,5.2,2.7c1.4,0,2.7-0.4,3.8-1.2c2.3-1.5,3.7-4.6,1.6-8c-10.5-17-22.6-35-36.8-55.1
				c9.2-27.5,15.5-56.2,21.6-84c4.2-19.3,8.6-39.2,13.9-58.5c14.1-51.1,32.6-87.5,58.4-114.3c24.1-25.1,56-38.5,86.8-51.5
				c10.5-4.4,21.3-9,31.7-13.9c39.4-18.8,69.2-46.5,88.7-82.5c20.1-37.2,27.6-79.8,21.1-120.4c8.7,5.7,17.9,10.4,27.5,14
				c26.6,9.9,55,10.2,79.9,1c18-6.7,34.8-17.8,49.3-32.6c-0.9,46.9,0.7,95.7,22.4,138.3c10,19.6,24.4,36.3,42.3,49.2
				c17.1,12.2,36.9,20.4,56.7,27.3c20.3,7,41.1,12.6,61.4,19.7c20.5,7.1,32.4,15.7,50.8,27.2c37.1,23.2,54.2,58.9,77,96.2
				c25.7,42.2,70.1,150.8,76.7,162.1c0,0.1-15.5,32.6-15.5,32.6c-3.2,7-6.2,14.1-9.2,21.2c-1.4,3.4,0.8,6.4,3.7,7.6
				c0.9,0.4,2,0.6,2.9,0.6c2.1,0,4.2-1,5.1-3.3c11.1-25.8,23.3-50.9,36.4-75.3c6.9,39.2,29.6,75.5,62.4,98.5
				c22.7,15.9,50.1,25.3,77.7,27c17.3,1.1,36.7-0.9,52.4-9.1c-45.3,60.5-94.3,124.6-168.1,150.6c-35.7,12.6-74.9,15.4-110.7,1.7
				c-33.9-12.9-61.8-39.3-82.1-68.8c-26.9-39.2-42.1-84.7-57.4-129.3c-0.2-0.5-0.4-0.9-0.6-1.3c2.5-11.8,5.2-23.5,8.1-35.3
				c1.8,2.2,3.5,4.6,5.1,7.1c4.3,6.7,14.2,0.9,10.6-6.2c-6.3-12.6-19.4-25.1-33.4-28.4c-6.5-1.5-11,7.7-4.7,11.1
				c3.9,2.2,7.9,4,11.6,6.4c-12.1,40.7-18.9,83.5-22.8,125.6c-3.7,40.3-3.9,80.7-0.8,121c1.7,22.8,3.9,46.1,9,68.4
				c1.6,7.1,13.9,5.7,13-1.8c-0.8-6.7-1.7-13.4-2.6-20.1c20.8-18.4,48.7-16.8,75-15.2c27.5,1.7,59.1,3,81.8-15.6
				c0.2-0.2,0.4-0.3,0.6-0.5c28.7,7.5,59.1,6.6,88.2-1.1c39.7-10.5,75.1-32.5,105.3-59.9c35.6-32.4,95-125.7,97.3-129.7
				c8.3-14.3,8.3-32.3,3.1-47.7c-5.4-15.8-15.5-28.7-26.5-40.9c2.8-3.6,5.6-7.2,8.5-10.8c29.6-37,62.1-71.6,97.1-103.5
				c19.6-17.8,40-34.7,60.8-51.1C1873.9,1271.9,1866.5,1262.1,1860.7,1266.3z M660.9,922.2c-13.3,11.9-23,26.6-29.5,43.1
				c-13,32.7-15.1,68.4-25.5,101.9c-8.7,28.2-24.9,58.3-52.6,71.8c-7.3,3.5-13.4-6.6-6.4-10.9c14.4-8.8,25.6-20.9,33.9-35.6
				c16.9-30.1,20.2-65.2,27.9-98.2c7-29.5,18.6-61.4,43.3-80.8C658.2,908.6,667,916.8,660.9,922.2z M724.3,853.6
				c-9.9,11.1-20.6,21.5-30.9,32.2c-5.8,6-14.8-3.1-9.1-9.1c10.3-10.7,20.3-21.8,31-32.1C721.3,838.9,729.7,847.5,724.3,853.6z
				 M760.1,815.1c-2.5,2.9-5.2,5.5-7.8,8.1c-2.5,2.5-6.5,2.3-9,0c-2.5-2.3-2.4-6.7,0-9c2.7-2.7,5.3-5.4,8.1-7.8
				c2.6-2.3,6.1-2.4,8.7,0C762.6,808.7,762.2,812.6,760.1,815.1z M1040.7,494.3c17-5,36.8,0.4,49.5,12.5c5.9,5.7-2.7,13.8-8.8,8.8
				c-10.8-8.8-23.8-11.7-37.3-9.3C1036.2,507.6,1032.9,496.6,1040.7,494.3z M1084,627.7c-1.6,3-5.6,3.8-8.5,2.2
				c-3.4-1.9-6.6-4.1-9.8-6.3c-2.8-2-3.9-5.3-2.2-8.4c1.6-2.9,5.6-3.8,8.4-2.2c3.4,2,6.7,3.9,9.8,6.3
				C1084.5,621.2,1085.7,624.4,1084,627.7z M987.4,567.4c6.2,6.8,12.4,13.2,20,18.3c7.6,5.1,15.8,8.8,24.4,11.9
				c7.6,2.7,4.6,14.2-3.3,12.1c-19.7-5.2-39-18.2-51-34.7C973.3,569.2,982.7,562.3,987.4,567.4z M842.2,584.6
				c5.7-14.5,14.4-27.5,25.4-38.6c10.6-10.6,24.1-20.7,38.5-25.6c6.8-2.3,11,8.1,4.8,11.5c-12.4,6.7-23.9,13.2-34,23.4
				c-9.8,9.9-17.4,21.5-23.3,34.1C850.5,595.7,839.7,591.1,842.2,584.6z M1188.2,801c-2.1,11.3-5.1,23.9-14.2,30
				c-8.1,5.3-16.3,2.8-22.6-0.3c0.4-1.8,0.7-3.6,1-5.3c0.7-4.5-2.2-7.7-5.4-8.5c-3-0.8-6.8,0.4-8.2,4.8c-1.8,5.3-3.4,10.7-5,16
				c-2.4,7.9-4.8,16-7.8,23.8c-5,12.7-11,24.7-17.9,35.5c-13.9,21.6-32.1,38.5-52.8,48.7c-49.6,24.5-102.6,0.8-133.1-33.7
				c-17.3-19.5-30.5-44.5-40.2-76.2c-0.9-2.8-3.2-4.5-6-4.5h0c-2.8,0-5.2,1.6-6.2,3.9c-1.4,0.5-2.5,1.5-3.4,2.7
				c-0.4,0.5-0.7,1-1,1.5c-1.7,2.7-3,4.6-6.4,4.9c-4.8,0.5-9.3-2.8-12.2-5.6c-6.1-5.9-11.1-15-14.8-27.1
				c-3.7-12.4-4.8-22.4-3.2-30.6c0.6-3,2.2-8.5,6.8-10.7c1.8-0.9,3.7-1,5.3-0.3c0.7,4.1,1.6,7.6,2.9,10.6c1.6,3.8,6.1,5.3,9.3,4.6
				c3.1-0.7,4.8-3.2,4.5-6.6c-0.3-3.8-0.9-7.6-1.5-11.2c-0.6-3.8-1.3-7.7-1.5-11.5c-0.5-7.5-0.3-15.2,0.5-22.8
				c1.6-15,6-30.1,12.7-43.6c9.4-18.8,24.3-33.2,38.8-47.1c8.8-8.5,17.9-17.2,25.7-26.9c8.8-10.9,14.8-21.4,18.4-32.1
				c3.8,5.9,8.4,11.4,13.5,16.6c18.4,18.2,42,28.1,60.5,34.8c7.8,2.8,15.8,5.3,24.2,8c36.8,11.6,74.9,23.7,94.6,57.8
				c5.7,9.9,9.6,21.1,11.1,32.5c1.4,10.7,0.2,20.7-1.1,31.4c-0.2,1.6-0.4,3.3-0.6,5c-0.2,2.1,0.6,4,2.3,5.4c2,1.6,5,2.2,7.3,1.4
				c2.4,0.1,4.5-1,5.5-3.1l0.1-0.3c2.3-4.7,5-9.9,9.8-12c2.2-1,4.3-1.1,6.1-0.3c1.8,0.8,3.3,2.4,4.2,4.8c1.9,4.7,1.9,10.1,1.9,15.3
				l0,0.5C1189.9,788.1,1189.3,794.7,1188.2,801z M1409.8,1024.9c-9-59.5,6.2-132-44.3-176.9c-6.1-5.5,2.7-13.9,8.9-8.9
				c23.1,18.8,34.8,48.4,40,77c6.4,35.3,4.6,71.5,7.8,107.1C1422.9,1030.4,1410.9,1032,1409.8,1024.9z M1423.5,1109.1
				c-3.7-15.1-7-30.8-8.9-46.2c-0.9-7.1,10.3-8.1,12.1-1.6c3.9,14.4,6.7,29.7,8.9,44.5C1436.7,1113.5,1425.5,1117.1,1423.5,1109.1z
				 M1485.5,1202.1c-5.5-6.1,2.6-13.7,8.8-8.8c11.5,9,21.2,21.5,29.7,33.3c8.7,12.1,16.1,25.1,21.5,39c2.6,6.7-8.3,11.1-11.4,4.8
				c-6.3-12.6-12.9-24.9-21-36.4C1504.9,1222.3,1495,1212.6,1485.5,1202.1z"/><path d="M1021.2,836.7c-18.7,6-17.1-20.3-16.3-31.6c1.3-18.6,4.8-36.7,8.1-55c1.2-6.7-8.4-9.6-10.3-2.8c-3.2,11.4-5,23.3-6.6,35
					c-1.6,11.8-3,23.8-3,35.6c0,9.5,2,19.8,9.8,26c6.6,5.3,16.5,7.5,23.3,1.6C1030.2,842,1026,835.1,1021.2,836.7z"/><path d="M1068.2,855.5c-10.1,0.2-20,4.6-27.9,10.8c-7.3,5.7-15.3,15.1-16.7,24.6c-0.8,5.4,6.5,9.8,9.6,4c4-7.6,7-14.3,13.9-19.9
					c6.7-5.3,14.3-7.6,22.6-8.8C1075.8,865.4,1074.2,855.4,1068.2,855.5z"/><path d="M935.1,755.8c-4.6-3.6-11.7-2.1-14.5,3c-1.4,2.7-1.4,6-0.1,8.8l0.2,1.3c0.4,1.5,1.2,2.8,2.3,3.9c0.6,0.5,1.2,0.9,1.8,1.4
				c1.4,0.8,2.9,1.2,4.4,1.2c1.2,0,2.3-0.2,3.4-0.8c1.1-0.4,2-1,2.8-1.8c0.9-0.8,1.5-1.7,1.8-2.8c0.3-0.6,0.5-1.2,0.6-1.8
				C940,764.1,938.8,758.6,935.1,755.8z"/><path d="M1094.7,749.8c-5-1.5-10,1.5-11.5,6.3c-0.7,2.2-0.6,4.6,0.2,6.8c0.1,0.9,0.3,1.8,0.7,2.6c0.2,0.8,0.6,1.4,1.1,2
				c0.6,1,1.5,1.7,2.5,2.3c0.7,0.3,1.4,0.6,2.1,0.9c0.8,0.1,1.6,0.2,2.4,0.3c1.2,0,2.4-0.2,3.4-0.8c1.1-0.4,2.1-1,2.9-1.8
				c0.3-0.3,0.5-0.6,0.8-1c0.3-0.3,0.6-0.6,0.7-1c0.6-0.9,0.9-1.8,1-2.8c0.5-1.1,0.8-2.3,0.9-3.5
				C1102.3,755.5,1099,751.1,1094.7,749.8z"/><path d="M1181.9,1165.9c-24.5,47.8-61,92.5-114.2,108.9c-25.8,7.9-53.8,9-79.7,1.2c-26.3-7.9-48.2-25.4-63.3-48.2
				c-19.4-29.4-26.8-64.5-28.2-99.2c-0.3-8.2-13.1-8.3-12.8,0c0.9,33.3,7.3,67.1,23.7,96.5c14.5,26,36.4,47.5,64,59.1
				c55.7,23.4,119.3,5.8,163.5-32.7c24.7-21.5,44.8-49.3,57.9-79.3C1195.9,1165,1185.7,1158.6,1181.9,1165.9z"/><path d="M997,1310.9c-22.5,0.1-44.6-6.1-62.8-19.6c-17.2-12.8-27.9-30.4-35.3-50.2c-2.8-7.5-14-4.7-12.1,3.3
				c5.4,22.7,21.2,43.4,39.5,57.3c20,15.1,45.7,23.3,70.7,21.6C1005,1322.9,1005.1,1310.8,997,1310.9z"/><path d="M1901,1225.4c-2.2-13-14.8-21.4-27.3-22.7c-14.9-1.6-29,6.5-40.9,14.6c-23.8,16.3-45.2,38.6-58.2,64.6
				c-3.5,7,6.4,13,10.6,6.2c12.8-20.9,27.9-39.8,47.6-54.7c9.5-7.2,20.4-15.1,32.4-17.3c9.7-1.8,21.1,2.2,23.4,12.7
				C1890.3,1237.1,1902.4,1233.5,1901,1225.4z"/><path d="M1860.3,1186.5c-6-13-22.1-16.5-34.8-12.9c-14.1,4-26.9,14.3-37.7,23.7c-11,9.5-20.7,20.4-29.1,32.3
				c-8.3,11.8-16.3,25.2-20.4,39.2c-2,6.6,8.2,11.2,11.3,4.8c5.5-11.2,10.4-22.3,17.3-32.8c6.8-10.3,14.8-19.8,23.8-28.3
				c8.8-8.4,18.5-16.2,29.2-22.1c9-5,23.5-8.7,29.4,2.7C1853.1,1200.4,1863.7,1193.9,1860.3,1186.5z"/><path d="M1789,1146.1c-14.4,0.1-23.2,13.3-30.7,23.8c-16.9,23.7-30.2,49.8-40.4,77.1c-2.9,7.6,9.2,10.7,12.1,3.3
				c7.9-20,17.4-39.4,28.8-57.7c5.5-8.8,11.2-17.8,18-25.6c3-3.5,6.7-7.2,11.5-7.7c2.4-0.2,7.5,1.6,5.9,5.1
				c-3.3,7.3,6.6,13.5,10.9,6.4C1812.1,1159.1,1801.4,1146,1789,1146.1z"/><path d="M1750,1305.6c-31.1-2.3-64.8,16.5-80.1,43.4c-4,7.1,6.3,12.9,10.8,6.3c16.1-23.8,40.7-36.4,69.3-36.9
				C1758.4,1318.3,1758.2,1306.2,1750,1305.6z"/><path d="M950.5,680.2c-19.7-4.5-42.5,7.7-52.3,24.5c-4.1,7.1,6.3,12.9,10.8,6.3c4.4-6.3,10.3-11.5,17.4-14.7
				c7.4-3.4,14.4-3.2,22.3-3.1C956.2,693.5,958,681.9,950.5,680.2z"/><path d="M1113.9,704.7c-8.4,1.9-16.6,2.1-24.3-2.3c-7.1-4.1-10.3-10.1-14-17.1c-3.5-6.6-12.6-1.8-11.4,4.8
				c1.9,10.2,11,19.8,20,24.5c10.7,5.6,23.5,6.5,34.6,1.6C1125.6,713.3,1120.5,703.2,1113.9,704.7z"/><path d="M231.3,1218.5c-20.4-19.3-47.9-30.8-75.8-32.8c-13.3-1-28.3,1.5-32.7,16.2c-3.7,12.2,4.6,26.9,17.9,27.8
				c5.9,0.4,8.4-8.7,3.1-11.3c-3.6-1.8-7.2-3.3-8.5-7.4c-1.2-3.7,0.5-8,3.6-10.2c3.9-2.8,9.6-2.3,14.2-2.1
				c5.1,0.3,10.2,0.9,15.2,1.9c20.2,4.1,38.5,13.5,53.9,27C228.4,1233,237.3,1224.2,231.3,1218.5z"/><path d="M247.3,1190.7c-5.5-12.1-16-22.4-26.4-30.3c-10.7-8.1-23.1-14.1-36.2-17.3c-13.2-3.3-30.4-5.3-40.4,6.2
				c-8.8,10.2-4.6,27.4,9.7,28.9c7.2,0.8,8.1-10.3,1.7-12.3c-3.3-1-4.1-4.3-2.3-7.1c2.5-4,7.7-5.1,12.1-5.2c9.8-0.2,20.1,2.7,29,6.5
				c8.5,3.7,16.6,8.7,23.6,14.9c7.4,6.5,12.8,14.1,18.4,22.1C241.1,1203.7,250.6,1198,247.3,1190.7z"/><path d="M282.2,1171.2c-8.2-23.7-23.7-44.7-43.6-59.9c-9.6-7.3-21.9-12.8-33.8-7.5c-10.8,4.7-16.4,19.2-7.8,28.6
				c4.9,5.4,12.1-1.5,9.4-7.3c-3.8-8.5,6.8-11.4,13.1-9.6c8.3,2.4,15.5,9.3,21.5,15.1c12.8,12.4,22.4,27.5,28.9,44
				C272.8,1182.2,284.9,1179.2,282.2,1171.2z"/><path d="M336.1,1276.5c-9.3-11.5-23.8-19.4-38.1-22.8c-11.9-2.9-31.1-5.1-37.9,8c-3,5.8,4.8,12.8,9.6,7.4
				c6.7-7.7,20.2-4.3,28.7-1.7c11.3,3.5,20.4,10.1,28.9,18.1C333.2,1291.1,341.1,1282.7,336.1,1276.5z"/><path d="M739,580.7c-26.2-99.8-52.4-199.6-78.5-299.5c-7.4-28.3-14.8-56.7-22.2-85c-0.8-3-4.4-4.4-7.1-4.2
				c-64.8,4.9-129.5,12.6-193.7,23c-64.2,10.4-127.9,23.6-191,39.6c-35.7,9-71.2,18.9-106.5,29.6c-2.6,0.8-4.7,4.4-4.1,7.1
				c17.9,81.7,35.5,163.5,53.3,245.2c5.1,23.4,10.2,46.7,15.3,70.1c1.8,7.9,14.4,6.5,12.7-1.6c-17.3-81.8-35.3-163.5-52.9-245.3
				c-0.4-2-0.8-3.9-1.3-5.9c122.6-26.2,244.9-53.4,367.4-80.2c35-7.7,70.1-15.4,105.1-23c1-0.2,1.9-0.6,2.7-1.2
				c21.9,83.9,43.7,167.8,65.6,251.7c6.6,25.2,13.1,50.5,19.7,75.7c-61.9,4-123.7,9.8-185.2,17.3c-64.2,7.9-128.2,17.7-191.9,29.4
				c-35.9,6.6-71.8,13.7-107.3,22.2c-7.9,1.9-6.7,14.5,1.6,12.9c63.5-12.6,126.9-25.2,190.9-35.2c63.9-10,128.2-18.2,192.6-24.4
				c36.4-3.5,72.8-6.4,109.2-8.7C738.4,590.1,740.1,584.8,739,580.7z M633.9,237.4c-123.9,27.4-247.8,54.4-371.8,81.6
				c-33.9,7.5-67.9,14.8-101.8,22.5c-3.3-15.4-6.7-30.9-10-46.3c60.3-18,121.2-33.7,182.8-46.8c63-13.3,126.6-24,190.5-31.9
				c34.3-4.3,68.8-7.7,103.3-10.4c2.7,10.4,5.4,20.8,8.2,31.3C634.7,237.2,634.3,237.3,633.9,237.4z"/><path d="M358.7,443.2c-5.3,0-10.6,0.2-15.9,0.7c-0.5-3-1.1-6.1-1.6-9.1c-1.6-9.1-2.7-18.5-5.2-27.3c-2.2-7.9-12.8-5.2-12.1,2.6
				c0.8,9.2,2.9,18.4,4.5,27.5c0.5,2.6,0.9,5.3,1.4,7.9c-5.9,0.9-11.7,2-17.4,3.4c-7.6,1.8-15,4.2-22.3,6.9
				c-7,2.6-13.6,6.2-20.5,8.9c0.3-0.7,0.6-1.3,0.9-2c1.6-3.6,3.2-7.2,4.8-10.8c3.5-7.8,7-15.6,10.5-23.4c6.7-15,14.1-29.8,19.9-45.2
				c2.5-6.5-7.8-11.7-11.1-5.3c-8.8,16.8-15.9,34.6-23.7,51.8c-3.8,8.4-7.6,16.8-11.4,25.2c-3.1,7-7.6,16.5,0.8,21.9
				c6.3,4.1,13.4,0.3,19.3-2.5c8-3.8,16.2-7,24.6-9.6c9.1-2.8,18.4-4.9,27.8-6.2c0.3,1.9,0.7,3.7,1,5.6c3.1,17.9,5.3,36.2,9.8,53.8
				c2,8,13.1,5.3,12.3-2.6c-1.8-18-6.1-36.1-9.3-53.9c-0.3-1.4-0.5-2.9-0.8-4.3c4.3-0.3,8.5-0.5,12.8-0.6
				C366.3,456.2,367.2,443.2,358.7,443.2z"/><path d="M613.8,389c-5.3,0-10.6,0.2-15.9,0.7c-0.5-3-1.1-6.1-1.6-9.1c-1.6-9.1-2.7-18.5-5.2-27.3c-2.2-7.9-12.8-5.2-12.1,2.6
				c0.8,9.2,2.9,18.4,4.5,27.5c0.5,2.6,0.9,5.3,1.4,7.9c-5.9,0.9-11.7,2-17.4,3.4c-7.6,1.8-15,4.2-22.3,6.9
				c-7,2.6-13.6,6.2-20.5,8.9c0.3-0.7,0.6-1.3,0.9-2c1.6-3.6,3.2-7.2,4.8-10.8c3.5-7.8,7-15.6,10.5-23.4c6.7-15,14.1-29.8,19.9-45.2
				c2.5-6.5-7.8-11.7-11.1-5.3c-8.8,16.8-15.9,34.6-23.7,51.8c-3.8,8.4-7.6,16.8-11.4,25.2c-3.1,7-7.6,16.5,0.8,21.9
				c6.3,4.1,13.4,0.3,19.3-2.5c8-3.8,16.2-7,24.6-9.6c9.1-2.8,18.4-4.9,27.8-6.2c0.3,1.9,0.7,3.7,1,5.6c3.1,17.9,5.3,36.2,9.8,53.8
				c2,8,13.1,5.3,12.3-2.6c-1.8-18-6.1-36.1-9.3-53.9c-0.3-1.4-0.5-2.9-0.8-4.3c4.3-0.3,8.5-0.5,12.8-0.6
				C621.4,402,622.2,389,613.8,389z"/><path d="M443.4,364.4c-25.8-2.7-52.5,12.1-63.2,35.8c-8.3,18.4-5.8,40.5,4.7,57.5c9.8,21.1,48.4,36.9,79.2,21
				c23.5-12.1,37.2-38.3,31.9-64.6C490.8,388.7,469.7,367.2,443.4,364.4z M463.3,463.5c-9.1,6.5-20.5,10-31.7,9.1
				c-6.4-0.5-12.6-1.7-19.7-6.2c-17.4-11.1-26.9-34-21.6-54.2c5.2-19.7,24.2-33.4,44.2-34.5c21.2-1.2,39.7,13.1,46.4,32.8
				C487.8,430.5,480.3,451.4,463.3,463.5z"/><path d="M1513.1,478.8c-8.4-3-16.6-5-24.4-9.7c-7.7-4.7-13.4-10.8-19.4-17.4c-3.6-4-8.7-2.5-10.5,1c-0.7,0.4-1.4,1.1-2.1,1.9
				c-18.1,25.8-36.2,51.6-54.3,77.4c-9,12.8-17.9,25.5-26.8,38.3c-9.1,13-19,25-27.3,39.3c-0.8,1.3-0.5,4.8-0.3,6.9
				c2.3,18.3,25.1,31.5,40.3,29.1c3.8-0.6,5.6-4,7.5-6.2c1.9-2.2,18.6-23.3,27.8-35c10.1-12.8,20.2-25.5,30.3-38.3
				c20-25.3,39.9-50.6,59.9-75.9c0,0,0-0.1,0.1-0.1C1517.8,487.3,1518.9,480.8,1513.1,478.8z M1430.6,535.4
				c-12.3,17.5-26.1,34.1-39.4,50.8c-4.7,5.9-14.6-0.5-9.9-6.5c13.1-17,25.8-34.4,39.8-50.6C1425.8,523.8,1435,529.3,1430.6,535.4z
				 M1457.7,497.3c-3.3,4.8-6.6,9.5-10.3,14c-1.9,2.4-5,3.4-7.8,1.6c-2.6-1.7-3.2-5.2-1.6-7.8c3.1-4.9,6.6-9.5,10.2-14.1
				c1.9-2.4,5.2-3.4,7.9-1.6C1458.6,491.1,1459.4,494.8,1457.7,497.3z"/><path d="M1682.9,241.2c-47.9-57.2-128.1-65.6-193.6-37.2c-49.8,21.6-75.3,98.5-66.3,151.2c9.8,57.6,54.3,102.7,111,115.7
				c28.2,6.5,57.3,5,84.5-5.3c26.3-10,49.2-28.4,66-50.8C1722.6,364.1,1724.4,290.7,1682.9,241.2z M1436,279.1
				c7.2-18.7,17.3-36.9,31.1-51.6c4.4-4.7,12.4,2.3,8.5,7.4c-11.5,15-21.6,30.3-28.5,48C1444.5,290,1433.3,286.2,1436,279.1z
				 M1662.5,380.3c-21,37-61,60.4-103.8,56.7c-42.5-3.7-81-31.4-95.5-72c-16.5-46.1-0.3-106.8,45.7-129.4c1.3-0.6,2-0.9,3.8-1.7
				c9.8-4.4,45-10.6,68.3-7.6c22.1,2.9,43.6,11.9,60.6,26.4C1678.5,284,1686.1,338.8,1662.5,380.3z"/><path d="M1806.2,1003c-15.4-37.2-32.6-73.6-47.9-110.9c-15.3-37.3-29.7-74.9-43.1-112.8c-1.6-4.5-7.8-5.9-11-2.1
				c-44.2,53.2-88.3,106.5-132.3,159.8c-12.4,15.1-24.9,30.1-37.3,45.2c-3,3.6-1.5,10.2,3.7,10.9c74.5,8.8,148.3,22.9,221,41.7
				c7.5,1.9,9.7-9.8,2.3-11.8c-68.6-18.8-138.6-32.6-209.2-41.5c41.5-50.2,82.9-100.3,124.4-150.5c10.1-12.2,20.1-24.4,30.1-36.6
				c12.5,34.6,25.6,69,39.5,103c15.3,37.3,30.6,75.2,49.1,111C1798.7,1014.3,1808.8,1009.2,1806.2,1003z"/><path d="M1712.2,874.1c0.8-7.4,1.5-15.2-1.5-21.9c-2.6-5.8-7.8-9.8-13.9-9.3c-6.4,0.5-11.5,5.6-14.9,11.4
				c-6.8,11.8-10.5,26.5-10.5,40.1c0,15.5,2.7,31.3,4.2,39c1.3,6.6,11.2,8.5,14.9,2.8c3.6-5.8,13.3-25.7,17.3-39.7
				C1709.9,889.2,1711.4,881.7,1712.2,874.1z"/><path d="M1683.6,956.1c-2.8-1.3-5.9-1.4-8.7-0.4c-0.5,0-1.1,0.1-1.6,0.2c-7.9,2.2-10.6,12.8-6,19.1c4.9,6.7,14.9,7.4,20.4,1
				C1693.3,969.8,1691.3,959.8,1683.6,956.1z"/><g><path fill="#000" d="M1142.4,719.1c-0.7-4.3-4.6-5.5-8-4.5c-16.6-0.1-33.3,1.3-49.9,1.8c-17.2,0.5-34.4,0.8-51.6,0.9
				c-14.5,0.1-83.6-0.6-101.2-1.2c-19.5-0.6-39-1.5-58.5-2.5c-5-0.2-6.9,4.3-5.9,8.1c-8.5,31.5,6.1,66.2,35.4,81.2
				c29.3,15.1,67.8,7.2,84.7-22.4c8.7-15.2,8.9-33.1,7.4-50.1c8.2,0.1,16.4,0.1,24.6,0c-2.8,32,10.7,67.5,41.1,81.9
				c14.3,6.7,31.3,7.9,46.1,1.9c15.3-6.2,25.6-18.9,31.5-34C1145.4,761.7,1145.6,738.6,1142.4,719.1z M974.4,776.4
				c-9.1,14-25.5,21.5-41.9,21c-17.3-0.5-33.7-9.6-43.7-23.6c-9.8-13.7-12.8-30.7-9.3-46.9c34,2,68,3.1,102,3.5
				C982.8,746.1,983.4,762.6,974.4,776.4z M1127.4,768.6c-3.1,12-9.5,23.8-20.5,30.2c-23.5,13.9-51.9,0-64.6-21.6
				c-8.4-14.2-10.5-30.6-9.8-46.8c14.7-0.1,29.4-0.3,44.1-0.7c17.4-0.4,35.2-0.3,52.6-1.7C1129.4,741.6,1130.9,755,1127.4,768.6z"/><path fill="#000" d="M513.4,1282.6c-11-10.1-29-10.8-39.9-0.3c-5.2,5,1.5,14,7.8,10.1c8.4-5.3,18.9-6.1,25.3,2.8
				c7,9.7,0.6,22-4.2,31.2c-9.2,17.6-21,33.8-35,47.9c-27.6,28-63,47.9-101.4,56.4c-11.3,2.5-24.9,5.1-35.6-0.9
				c-7.8-4.4-12.2-14.7-7-22.5c3.9-5.8-5.2-13-9.8-7.5c-7.6,9-7,21.5-0.7,31.1c7.1,10.8,19.2,15.3,31.8,15.7
				c12.7,0.4,25.8-2.8,37.9-6.2c12-3.5,23.8-8.1,35-13.6c43.2-21.2,81.5-58.1,100.9-102.6C524.6,1310.1,525.6,1293.7,513.4,1282.6z"/><path fill="#000" d="M1687.7,1482.8c-5.8,16.3-30,9.1-41.5,5.3c-14.5-4.9-28.2-12-40.7-20.9c-24.4-17.4-44.1-42.2-54.8-70.3
				c-6.7-17.6-12-39.4,2.6-54.6c5.7-5.9-2.8-14.2-8.9-8.9c-16.5,14.1-15.5,38.4-9.9,57.4c5.2,17.4,13.5,34,24.2,48.7
				c21.3,29.2,51.3,52.1,85.9,63.2c11.1,3.6,23.2,6.4,34.8,3.6c10.3-2.5,18.7-9.6,22.3-19.6
				C1704.8,1477.8,1690.8,1474,1687.7,1482.8z"/><path fill="#000" d="M565.1,511.8c-33.2,5.7-66.3,12.6-99.4,19c-16.2,3.1-32.5,6.3-48.7,9.4c-16.8,3.2-34,5.7-50.6,10.1
				c-6.5,1.7-5.4,12.9,1.6,12c16.9-2.1,33.7-6,50.4-9.2c16.6-3.2,33.1-6.3,49.7-9.5c33.5-6.4,67-12.3,100.4-19.4
				C576.6,522.4,573,510.4,565.1,511.8z"/><path fill="#000" d="M509.2,546.2c-23.8,5.1-47.4,11.8-70.9,18c-7.9,2.1-4.5,14.1,3.4,12.2c23.6-5.8,47.6-11.2,70.9-18
				C520.3,556.1,517.1,544.5,509.2,546.2z"/><path fill="#000" d="M1600.5,277.2c-6-0.2-10.7,5.4-14.9,9c-4.5,3.8-8.9,7.7-13.2,11.7c-5.8,5.2-11.4,10.5-17,16
				c-4.8-5-9.6-9.9-14.4-14.8c-7.1-7.2-14.7-15.3-23.3-20.6c-6.2-3.8-11.4,4.5-8.5,9.7c2.5,4.5,6.3,8.4,9.6,12.3
				c3.4,4.1,7,8,10.7,11.9c4.4,4.8,8.9,9.5,13.4,14.2c-6.1,6.4-12.1,12.9-17.9,19.6c-3.8,4.3-7.3,8.8-10.8,13.4
				c-3.4,4.6-7.7,9.8-8.9,15.5c-0.9,4.4,3.8,9.4,8.3,7.2c5.2-2.4,8.9-6.9,12.7-11c3.7-4,7.3-8,10.9-12.1
				c5.9-6.7,11.9-13.3,18.1-19.7c12.8,13.3,25.5,26.6,38.3,39.8c3.4,3.5,9.7,2.6,12.7-0.9c3.4-3.9,2.5-9.2-0.9-12.7
				c-12.5-13-25-26-37.5-39c5.5-5.4,11.1-10.7,16.8-15.9c3.9-3.5,7.8-7,11.8-10.4c4.6-3.9,11.3-7.6,12.3-14
				C1609.5,281.1,1605.7,277.4,1600.5,277.2z"/></g><g><path fill="#ffef00" d="M946.1,830.7c-3.7-5.8-11.2-7.4-17.5-8.2c-9.1-1.1-32.9-0.2-32.7,13.3c0.1,4.6,3.7,10.5,9.2,12.7
				c6.4,2.6,13.7,3.4,20.6,3c6-0.3,13.4-0.9,18.2-4.9C948.7,842.6,949.6,836,946.1,830.7z"/><path fill="#ffef00" d="M1118.5,830.7c-3.7-5.8-11.2-7.4-17.5-8.2c-9.1-1.1-32.9-0.2-32.7,13.3c0.1,4.6,3.7,10.5,9.2,12.7
				c6.4,2.6,13.7,3.4,20.6,3c6-0.3,13.4-0.9,18.2-4.9C1121,842.6,1121.9,836,1118.5,830.7z"/><path fill="#ffef00" d="M889,923.5c-1.9,12.4-11.2,22.9-24.8,21c-13.5-1.9-19.4-14.7-21.8-26.7c-5.8-28.3,0.9-58.7,15.6-83.3
				c4.2-7.1-6.7-13.5-11-6.5c-15,24.3-21.9,53.7-18.8,82.2c1.4,12.8,4.4,26,13.1,36c8.5,9.7,22.5,13.7,34.9,10.4
				c14.1-3.7,24.7-17,25.1-31.5C901.4,918.3,890.1,916.4,889,923.5z"/><path fill="#ffef00" d="M1167.8,820.9c-3.2-6.3-14.4-1.8-11.6,4.9c11.1,26.4,16.1,54.6,11.4,83.1c-1.8,10.8-4.2,26.3-14.6,32.5
				c-12.1,7.1-24.6-3.1-24.5-15.8c0.1-8.5-12.1-8.1-12.9,0c-1.7,16.7,12.4,31.2,28.9,31.4c18,0.2,28.6-15,33-30.6
				C1187.3,892.2,1183.6,852.7,1167.8,820.9z"/><path fill="#ffef00" d="M198.7,295.3c-6.1-3.4-14-1.7-17.7,4.4c-3.2,5.3-2.6,13.1,2.4,17.1c0.7,0.5,1.4,1,2.1,1.3
					c0.3,0.3,0.6,0.5,0.9,0.8c5.9,4.5,14.8-0.2,17.8-5.9C207.7,306.5,204.9,298.7,198.7,295.3z"/><path fill="#ffef00" d="M192.5,307C192.5,307,192.5,307,192.5,307C192.5,307,192.5,307,192.5,307C192.5,307,192.5,307,192.5,307
					C192.5,307,192.5,307,192.5,307z"/><path fill="#ffef00" d="M192.6,306.6C192.6,306.6,192.5,306.6,192.6,306.6C192.5,306.6,192.5,306.6,192.6,306.6
					C192.6,306.6,192.6,306.6,192.6,306.6C192.6,306.6,192.6,306.6,192.6,306.6z"/><path fill="#ffef00" d="M192.7,307.2C192.7,307.2,192.7,307.2,192.7,307.2C192.7,307.2,192.7,307.2,192.7,307.2z"/><path fill="#ffef00" d="M241.3,285.3c-6.1-3.4-14-1.7-17.7,4.4c-3.2,5.3-2.6,13.1,2.4,17.1c0.7,0.5,1.4,1,2.1,1.3
					c0.3,0.3,0.6,0.5,0.9,0.8c5.9,4.5,14.8-0.2,17.8-5.9C250.3,296.5,247.6,288.8,241.3,285.3z"/><path fill="#ffef00" d="M235.1,297.1C235.1,297.1,235.1,297.1,235.1,297.1C235.1,297.1,235.1,297.1,235.1,297.1
					C235.2,297.1,235.2,297.1,235.1,297.1C235.1,297.1,235.1,297.1,235.1,297.1z"/><path fill="#ffef00" d="M235.2,296.7C235.2,296.7,235.2,296.7,235.2,296.7C235.2,296.7,235.2,296.7,235.2,296.7
					C235.2,296.7,235.2,296.7,235.2,296.7C235.2,296.6,235.2,296.6,235.2,296.7z"/><path fill="#ffef00" d="M235.3,297.2C235.3,297.2,235.3,297.2,235.3,297.2C235.4,297.2,235.4,297.2,235.3,297.2z"/><g><path fill="#ffef00" d="M283.4,275.4c-6.1-3.4-14-1.7-17.7,4.4c-3.2,5.3-2.6,13.1,2.4,17.1c0.7,0.5,1.4,1,2.1,1.3
					c0.3,0.3,0.6,0.5,0.9,0.8c5.9,4.5,14.8-0.2,17.8-5.9C292.5,286.6,289.7,278.9,283.4,275.4z"/><path fill="#ffef00" d="M277.2,287.1C277.2,287.1,277.2,287.1,277.2,287.1C277.2,287.2,277.3,287.2,277.2,287.1
					C277.3,287.2,277.3,287.2,277.2,287.1C277.3,287.2,277.2,287.2,277.2,287.1z"/><path fill="#ffef00" d="M277.3,286.7C277.3,286.8,277.3,286.8,277.3,286.7C277.3,286.8,277.3,286.8,277.3,286.7
					C277.3,286.8,277.3,286.7,277.3,286.7C277.3,286.7,277.3,286.7,277.3,286.7z"/><path fill="#ffef00" d="M277.4,287.3C277.4,287.3,277.4,287.3,277.4,287.3C277.5,287.3,277.5,287.3,277.4,287.3z"/></g><g><path fill="#ffef00" d="M1115.5,319.5c-25.5,0-46.2-20.7-46.2-46.2s20.7-46.2,46.2-46.2s46.2,20.7,46.2,46.2
						S1141,319.5,1115.5,319.5z M1115.5,247.6c-14.1,0-25.6,11.5-25.6,25.6s11.5,25.6,25.6,25.6c14.1,0,25.6-11.5,25.6-25.6
						S1129.6,247.6,1115.5,247.6z"/></g><g><path fill="#ffef00" d="M392.7,943.9c-25.5,0-46.2-20.7-46.2-46.2c0-25.5,20.7-46.2,46.2-46.2s46.2,20.7,46.2,46.2
						C438.9,923.2,418.2,943.9,392.7,943.9z M392.7,872.1c-14.1,0-25.6,11.5-25.6,25.6c0,14.1,11.5,25.6,25.6,25.6
						s25.6-11.5,25.6-25.6C418.3,883.6,406.8,872.1,392.7,872.1z"/></g></g></svg>