<svg xmlns="http://www.w3.org/2000/svg" data-name="Layer 1" viewBox="0 0 450 250"><rect width="450" height="250" fill="none"/><path fill="#000" d="M50,86.72h199.2c3.58,0,15.41-20.74-6.63-31.62-14.86-7.34-28.73,5.39-28.73,5.39s.46-21.05-22.9-22.46c-31.27-1.89-35.13,24-35.13,24s-4.45-11.86-19.3-7.06c-12.71,4.11-15.74,18.23-15.74,18.23S75.65,82.1,50,86.72Z"/><path fill="#000" d="M190.39,193.61c6-.14,10.8-.23,15.41-.27l13.91-.13c9.17-.06,18.27-.09,27.37-.07,18.13.09,36.85,0,55.4,0l111.8-.16-.21.09a31.53,31.53,0,0,0,7.81-15.72,21.16,21.16,0,0,0-.35-8.75A23.77,23.77,0,0,0,411,154.89a19,19,0,0,0-8.49-2.15,31.26,31.26,0,0,0-8.81,1,39.54,39.54,0,0,0-8.32,3.13.33.33,0,0,1-.44-.14.19.19,0,0,1,0-.07h0a20.87,20.87,0,0,0-5-9.09,22.92,22.92,0,0,0-8.56-5.8c-6.52-2.58-13.82-2.38-20.77-1.49a49.18,49.18,0,0,0-10.23,2.51,38.17,38.17,0,0,0-9.26,4.94,32.61,32.61,0,0,0-7.32,7.51,28.4,28.4,0,0,0-4.39,9.47h0a.35.35,0,0,1-.42.27.39.39,0,0,1-.25-.2,33.4,33.4,0,0,0-5.08-7.92,24.71,24.71,0,0,0-7.3-5.88,18.36,18.36,0,0,0-9.08-2,24.17,24.17,0,0,0-9.11,2.27,33.22,33.22,0,0,0-8,5.06,37.13,37.13,0,0,0-6.29,7.07,47,47,0,0,0-7.17,17.45h0a.17.17,0,0,1-.15.14c-12.76,2-25.51,4.14-38.26,6.26l-19.11,3.24-9.54,1.67L195,193C193.49,193.3,192,193.4,190.39,193.61Zm-.57,0c1.57-.36,3.27-.83,5-1.13l4.82-.83,9.56-1.62,19.12-3.19,38.27-6.22-.15.15a47.13,47.13,0,0,1,7.18-17.63,37.64,37.64,0,0,1,6.33-7.18,33.38,33.38,0,0,1,8.07-5.16,24.7,24.7,0,0,1,9.29-2.36,19,19,0,0,1,9.35,2,25.65,25.65,0,0,1,7.52,6,34.16,34.16,0,0,1,5.26,8.05l-.67.08a29,29,0,0,1,4.43-9.8,33.63,33.63,0,0,1,7.44-7.76,38.51,38.51,0,0,1,9.46-5.12,50.17,50.17,0,0,1,10.42-2.61,64.15,64.15,0,0,1,10.73-.62,32.06,32.06,0,0,1,10.58,2.09,22.72,22.72,0,0,1,8.83,6.21,22.47,22.47,0,0,1,4.92,9.56l-.46-.22a44.52,44.52,0,0,1,8.48-3.13,32.29,32.29,0,0,1,9-1.1,19.61,19.61,0,0,1,8.77,2.21,24.54,24.54,0,0,1,10.95,14,20.58,20.58,0,0,1,.38,9.07,30.27,30.27,0,0,1-3,8.53,36.12,36.12,0,0,1-5.12,7.45.25.25,0,0,1-.19.09h0l-112.38.23c-18.81,0-37.45,0-56.68.17q-14.39.07-28.67,0l-14.11-.08C197.71,193.85,193.19,193.78,189.82,193.66Z"/><path fill="#0" d="M208.61,109.41H181.45v16.91a25.92,25.92,0,0,1,11.13-2.51,20.74,20.74,0,0,1,10.85,2.84,19.62,19.62,0,0,1,7.47,8.23,27.85,27.85,0,0,1,2.73,12.71,25.8,25.8,0,0,1-3.49,13.47,24,24,0,0,1-9.87,9.11,32,32,0,0,1-14.78,3.27,30.66,30.66,0,0,1-23.78-10.69l8.72-8.18q6.1,7,14.62,7,6,0,9.33-3.6t3.32-10.36q0-13-11.12-13a16.64,16.64,0,0,0-4.53.6,21.29,21.29,0,0,0-4.64,2H166.62v-39h43.84Z"/><path fill="#0" d="M269.15,106.63q6.87,9.89,6.87,28.42t-6.93,28.47q-6.93,9.91-20.12,9.92t-20.07-9.92Q222,153.59,222,135.05t6.87-28.42q6.87-9.87,20.07-9.87T269.15,106.63Zm-26.51,4.26q-2.4,2.56-3.54,8.4A84.91,84.91,0,0,0,238,135.05a84.91,84.91,0,0,0,1.15,15.76q1.14,5.83,3.54,8.4a9.16,9.16,0,0,0,12.65,0q2.4-2.5,3.6-8.34a82.5,82.5,0,0,0,1.2-15.87,83.2,83.2,0,0,0-1.2-16c-.8-3.89-2-6.66-3.6-8.29a8.42,8.42,0,0,0-6.32-2.46A8.27,8.27,0,0,0,242.64,110.89Z"/><path fill="#0" d="M329.25,109.41H302.09v16.91a25.91,25.91,0,0,1,11.12-2.51,20.8,20.8,0,0,1,10.86,2.84,19.62,19.62,0,0,1,7.47,8.23,28,28,0,0,1,2.72,12.71,25.7,25.7,0,0,1-3.49,13.47,23.86,23.86,0,0,1-9.87,9.11,32,32,0,0,1-14.78,3.27,30.68,30.68,0,0,1-23.78-10.69l8.73-8.18q6.1,7,14.62,7,6,0,9.32-3.6t3.33-10.36q0-13-11.13-13a16.56,16.56,0,0,0-4.52.6,21.09,21.09,0,0,0-4.64,2h-10.8v-39H331.1Z"/><path fill="#15" d="M181.94,177.37a31.16,31.16,0,0,1-24.06-10.82.38.38,0,0,1,0-.53l8.73-8.18a.37.37,0,0,1,.54,0c4,4.54,8.8,6.85,14.33,6.85,3.87,0,6.92-1.17,9.05-3.48s3.23-5.72,3.23-10.1c0-8.48-3.52-12.6-10.75-12.6a16.27,16.27,0,0,0-4.42.58,20.87,20.87,0,0,0-4.56,2,.37.37,0,0,1-.18,0h-10.8a.38.38,0,0,1-.38-.38v-39a.38.38,0,0,1,.38-.38h43.85a.36.36,0,0,1,.29.13.38.38,0,0,1,.08.31L205.44,113a.38.38,0,0,1-.38.32H178.28v15.94A26.27,26.27,0,0,1,189,127a21.21,21.21,0,0,1,11.05,2.89,20,20,0,0,1,7.61,8.39,28.33,28.33,0,0,1,2.77,12.88,26.23,26.23,0,0,1-3.54,13.66,24.4,24.4,0,0,1-10,9.25A32.47,32.47,0,0,1,181.94,177.37Zm-23.25-11.05a30.39,30.39,0,0,0,23.25,10.29,31.72,31.72,0,0,0,14.6-3.23,23.71,23.71,0,0,0,9.72-9,25.47,25.47,0,0,0,3.44-13.27A27.66,27.66,0,0,0,207,138.6a19.41,19.41,0,0,0-7.33-8.08A20.44,20.44,0,0,0,189,127.74a25.68,25.68,0,0,0-11,2.47.36.36,0,0,1-.36,0,.38.38,0,0,1-.18-.32V113a.38.38,0,0,1,.38-.38h26.84l1.73-10.48h-43v38.3h10.32a21.73,21.73,0,0,1,4.63-2,17,17,0,0,1,4.63-.61c7.64,0,11.51,4.49,11.51,13.36,0,4.58-1.16,8.15-3.43,10.62s-5.52,3.72-9.61,3.72a19.13,19.13,0,0,1-14.64-6.82Z"/><path fill="#15" d="M245.42,177.37c-8.89,0-15.75-3.4-20.38-10.09s-6.94-16.3-6.94-28.69,2.33-22,6.94-28.63,11.49-10,20.38-10,15.86,3.37,20.49,10h0c4.61,6.62,6.94,16.25,6.94,28.63s-2.35,22-7,28.69S254.31,177.37,245.42,177.37Zm0-76.68c-8.62,0-15.27,3.26-19.76,9.71s-6.8,16-6.8,28.19,2.29,21.74,6.8,28.26,11.14,9.76,19.76,9.76,15.29-3.29,19.81-9.76,6.86-16,6.86-28.26-2.29-21.71-6.8-28.19h0C260.8,104,254.12,100.69,245.42,100.69Zm0,65a8.66,8.66,0,0,1-6.6-2.69c-1.64-1.75-2.87-4.64-3.64-8.58A85.81,85.81,0,0,1,234,138.59a85.76,85.76,0,0,1,1.16-15.83c.77-4,2-6.83,3.64-8.59a8.65,8.65,0,0,1,6.6-2.68,8.84,8.84,0,0,1,6.6,2.57c1.64,1.68,2.89,4.53,3.7,8.48a84.1,84.1,0,0,1,1.21,16,83.37,83.37,0,0,1-1.21,15.95c-.81,3.94-2.06,6.81-3.7,8.53A8.74,8.74,0,0,1,245.42,165.7Zm0-53.45a7.93,7.93,0,0,0-6,2.44h0c-1.54,1.65-2.7,4.41-3.45,8.21a86.14,86.14,0,0,0-1.14,15.69,86,86,0,0,0,1.14,15.69c.75,3.8,1.91,6.57,3.45,8.21a7.9,7.9,0,0,0,6,2.45,8,8,0,0,0,6.05-2.39c1.54-1.62,2.72-4.36,3.5-8.16a81.77,81.77,0,0,0,1.2-15.8,82.49,82.49,0,0,0-1.2-15.9c-.78-3.8-1.95-6.52-3.49-8.1A8.14,8.14,0,0,0,245.42,112.25Zm-6.33,2.18h0Z"/><path fill="#15" d="M302.58,177.37a31.18,31.18,0,0,1-24.07-10.82.39.39,0,0,1,0-.53l8.72-8.18a.39.39,0,0,1,.28-.1.35.35,0,0,1,.27.13c4,4.54,8.8,6.85,14.33,6.85,3.87,0,6.91-1.17,9.05-3.48s3.22-5.71,3.22-10.1c0-8.48-3.51-12.6-10.74-12.6a16.4,16.4,0,0,0-4.43.58,21,21,0,0,0-4.55,2,.41.41,0,0,1-.19,0H283.71a.38.38,0,0,1-.38-.38v-39a.38.38,0,0,1,.38-.38h43.84a.35.35,0,0,1,.29.13.35.35,0,0,1,.09.31L326.08,113a.39.39,0,0,1-.38.32H298.92v15.94a26.27,26.27,0,0,1,10.75-2.3,21.14,21.14,0,0,1,11,2.89,20,20,0,0,1,7.62,8.39,28.33,28.33,0,0,1,2.77,12.88,26.14,26.14,0,0,1-3.55,13.66,24.31,24.31,0,0,1-10,9.25A32.47,32.47,0,0,1,302.58,177.37Zm-23.25-11.05a30.39,30.39,0,0,0,23.25,10.29,31.75,31.75,0,0,0,14.6-3.23,23.71,23.71,0,0,0,9.72-9,25.45,25.45,0,0,0,3.44-13.27,27.66,27.66,0,0,0-2.69-12.54,19.28,19.28,0,0,0-7.33-8.08,20.38,20.38,0,0,0-10.65-2.78,25.68,25.68,0,0,0-11,2.47.36.36,0,0,1-.36,0,.38.38,0,0,1-.18-.32V113a.38.38,0,0,1,.38-.38h26.84l1.73-10.48h-43v38.3h10.32a21.51,21.51,0,0,1,4.63-2,17,17,0,0,1,4.63-.61c7.63,0,11.5,4.49,11.5,13.36,0,4.58-1.15,8.16-3.42,10.62s-5.52,3.72-9.61,3.72a19.13,19.13,0,0,1-14.64-6.82Z"/><path fill="#15" d="M39.62,92l9.7-.19,8.53-.09,16.67-.14c11-.06,21.93-.06,32.89,0l66.81.1,33.59,0h30.73l.2,0a2,2,0,0,0,.41-.17,6,6,0,0,0,1.48-1.33,19.21,19.21,0,0,0,3.57-15.66,17.21,17.21,0,0,0-3.69-7.33A24.6,24.6,0,0,0,234.13,62a33.18,33.18,0,0,0-3.71-1.89,24,24,0,0,0-4-1.22,22.12,22.12,0,0,0-8.27-.05,33.15,33.15,0,0,0-14.75,7.31.4.4,0,0,1-.56,0,.38.38,0,0,1-.09-.25c-.13-6.69-3.05-13.61-8.59-17.6a23.35,23.35,0,0,0-9.29-4c-.83-.2-1.68-.27-2.52-.42s-1.69-.18-2.55-.21l-2.56-.08-2.56.06a35,35,0,0,0-10,2,33.58,33.58,0,0,0-4.63,2,32.35,32.35,0,0,0-4.2,2.81A28.35,28.35,0,0,0,149.28,58a29.53,29.53,0,0,0-3.67,9.38.48.48,0,0,1-.91.1,13.11,13.11,0,0,0-8.35-7.44c-3.75-1.07-7.82-.4-11.49.93a21.79,21.79,0,0,0-9.33,7,29.22,29.22,0,0,0-5.18,10.57h0a.25.25,0,0,1-.19.19L74.77,85.56,57.08,89l-8.85,1.67-4.39.84C42.47,91.75,41.11,91.83,39.62,92Zm-.57,0c1.46-.35,3.05-.81,4.64-1.08l4.46-.79L57,88.56l17.7-3.33,35.34-7-.2.2a29.88,29.88,0,0,1,5.23-10.82,22.28,22.28,0,0,1,9.53-7.29c3.75-1.41,8-2.18,12-1.09a14,14,0,0,1,9,7.91l-.91.1a30.43,30.43,0,0,1,3.73-9.76,27.79,27.79,0,0,1,16-12.8A40,40,0,0,1,174.68,43l2.59,0,2.59.08c.87,0,1.73.13,2.59.2s1.72.22,2.57.42a23.76,23.76,0,0,1,9.55,4,20.77,20.77,0,0,1,6.59,8,25.06,25.06,0,0,1,2.4,10.13l-.65-.3A31.88,31.88,0,0,1,210,60.85a29.34,29.34,0,0,1,8.07-2.62,22.55,22.55,0,0,1,8.47.06,23.91,23.91,0,0,1,4.07,1.24,34.59,34.59,0,0,1,3.79,1.93A25.34,25.34,0,0,1,241,66.87a18,18,0,0,1,3.81,7.57,19.87,19.87,0,0,1-3.69,16.15,6.23,6.23,0,0,1-1.64,1.46,2.35,2.35,0,0,1-.56.23,1.64,1.64,0,0,1-.32,0H207.7l-33.78,0L106,92.47c-11.5.07-23,.07-34.48,0l-17-.14-8.31-.09C43.57,92.2,41.09,92.14,39.05,92.07Z"/><path fill="#15" d="M98.11,215.73c2.42-.08,3.7-.08,5.36-.11l4.79-.06,9.46-.08,18.95,0,19.26,0h9.65c1.62,0,3.22.06,4.83.13s3.23,0,4.84,0l-.15.14a28.46,28.46,0,0,0-.15-6.05,19.15,19.15,0,0,0-1.62-5.77,13.35,13.35,0,0,0-1.58-2.52,9.56,9.56,0,0,0-2.21-1.95,10.71,10.71,0,0,0-5.65-1.54A21.64,21.64,0,0,0,152.43,201a26.11,26.11,0,0,0-8.51,8.38h0a.25.25,0,0,1-.19.12l-22.81,3.19Zm-1,.07,23.27-3.5L143.64,209l-.2.14a26.36,26.36,0,0,1,8.69-8.6,21.88,21.88,0,0,1,11.77-3.2,11.26,11.26,0,0,1,5.95,1.64,10.6,10.6,0,0,1,4,4.73,19.64,19.64,0,0,1,1.54,6,29.9,29.9,0,0,1,.05,6.13.15.15,0,0,1-.15.13c-1.62,0-3.24,0-4.86,0s-3.26.15-4.89.13H136.18l-19.87,0-10-.09-4.92-.06C99.87,215.88,97.91,215.87,97.1,215.8Z"/><polygon points="119.55 78.29 96.08 130.24 123.3 130.24 105.78 177.8 157.1 110.21 133.11 110.21 149.59 78.29 119.55 78.29"/><polygon points="351.37 67.03 336.39 100.19 353.77 100.19 342.58 130.55 375.34 87.4 360.03 87.4 370.55 67.03 351.37 67.03"/><polygon fill="#0" points="376.89 196.71 371.01 206.88 382.76 206.88 376.89 196.71"/><path fill="#15" d="M319.59,44.55H307.84a.37.37,0,0,1-.33-.19.37.37,0,0,1,0-.38l5.87-10.17a.39.39,0,0,1,.66,0L319.92,44a.42.42,0,0,1,0,.38A.39.39,0,0,1,319.59,44.55Zm-11.09-.76h10.43l-5.22-9Z"/><polygon fill="#0" points="354.04 196.71 348.16 206.88 359.91 206.88 354.04 196.71"/><polygon fill="#0" points="365.46 176.72 359.59 186.9 371.34 186.9 365.46 176.72"/><path fill="#15" d="M71.46,143.53H59.71a.41.41,0,0,1-.33-.19.42.42,0,0,1,0-.38l5.88-10.18a.4.4,0,0,1,.66,0L71.79,143a.37.37,0,0,1,0,.38A.4.4,0,0,1,71.46,143.53Zm-11.09-.76H70.8l-5.21-9Z"/></svg>